<svg width="34" height="39" viewBox="0 0 34 39" fill="none" xmlns="http://www.w3.org/2000/svg">
<path d="M16.9922 0.929097C16.2872 0.929252 15.5947 1.11495 14.9842 1.46754L2.37919 8.7445C1.7686 9.09712 1.26158 9.60424 0.909096 10.2149C0.556608 10.8256 0.371067 11.5183 0.371124 12.2233V26.7773C0.371067 27.4824 0.556608 28.175 0.909096 28.7857C1.26158 29.3964 1.7686 29.9035 2.37919 30.2561L14.9842 37.5335C15.5947 37.8859 16.2873 38.0714 16.9922 38.0714C17.6972 38.0714 18.3898 37.8859 19.0003 37.5335L31.6053 30.2561C32.2159 29.9035 32.7229 29.3964 33.0754 28.7857C33.4279 28.175 33.6134 27.4824 33.6134 26.7773V12.2233C33.6134 11.5183 33.4279 10.8256 33.0754 10.2149C32.7229 9.60424 32.2159 9.09712 31.6053 8.7445L19.0003 1.46754C18.3898 1.11482 17.6973 0.929369 16.9922 0.929097ZM16.7595 2.32063C17.0696 2.26599 17.3891 2.32237 17.6617 2.47989L29.8516 9.51758C29.9194 9.55678 29.9757 9.61313 30.0149 9.68098C30.054 9.74883 30.0746 9.82578 30.0746 9.90412C30.0746 9.98245 30.054 10.0594 30.0149 10.1273C29.9757 10.1951 29.9194 10.2515 29.8516 10.2907L17.6617 17.3283C17.4582 17.4459 17.2273 17.5077 16.9922 17.5077C16.7572 17.5077 16.5263 17.4459 16.3228 17.3283L4.13291 10.2907C4.06508 10.2515 4.00877 10.1951 3.96962 10.1273C3.93047 10.0594 3.90986 9.98245 3.90986 9.90412C3.90986 9.82578 3.93047 9.74883 3.96962 9.68098C4.00877 9.61313 4.06508 9.55678 4.13291 9.51758L16.3228 2.47989C16.458 2.40174 16.6058 2.34784 16.7595 2.32063ZM2.28642 12.9164C2.38964 12.8983 2.49596 12.917 2.58676 12.9694L14.7766 20.0071C14.9802 20.1246 15.1492 20.2936 15.2667 20.4972C15.3842 20.7007 15.4461 20.9316 15.4461 21.1667V35.2421C15.4461 35.3204 15.4254 35.3973 15.3862 35.4652C15.347 35.533 15.2907 35.5893 15.2229 35.6285C15.155 35.6676 15.0781 35.6883 14.9998 35.6883C14.9214 35.6883 14.8445 35.6677 14.7766 35.6286L2.58676 28.5909C2.3832 28.4734 2.21417 28.3043 2.09665 28.1008C1.97913 27.8972 1.91727 27.6663 1.91727 27.4313V13.3559C1.91733 13.2509 1.95436 13.1493 2.02187 13.069C2.08937 12.9886 2.18304 12.9346 2.28642 12.9164ZM31.6981 12.9164C31.8014 12.9346 31.8951 12.9886 31.9626 13.069C32.0301 13.1493 32.0672 13.2509 32.0672 13.3559V27.4313C32.0672 27.6663 32.0054 27.8972 31.8878 28.1008C31.7703 28.3043 31.6013 28.4734 31.3977 28.5909L19.2079 35.6286C19.14 35.6677 19.0631 35.6883 18.9847 35.6883C18.9064 35.6883 18.8295 35.6676 18.7616 35.6285C18.6938 35.5893 18.6374 35.533 18.5983 35.4652C18.5591 35.3973 18.5384 35.3204 18.5384 35.2421V21.1667C18.5384 20.9316 18.6003 20.7007 18.7178 20.4972C18.8353 20.2936 19.0043 20.1246 19.2079 20.0071L31.3977 12.9694C31.4885 12.917 31.5948 12.8983 31.6981 12.9164Z" fill="#727976"/>
<path d="M21.1129 24.7275L23.695 24.2567L21.1129 26.7936V28.3049L25.0672 24.1233V22.8315L21.1129 23.2158V24.7275ZM29.4927 25.3811V24.1469L25.3664 26.5292V27.7638L29.4927 25.3811Z" fill="#727976"/>
<path d="M4.49181 19.8898L7.07388 22.4003L4.49181 21.9558V23.4672L8.44609 23.8518V22.56L4.49181 18.3784V19.8898ZM12.8716 30.22V28.9854L8.74527 26.6032V27.8374L12.8716 30.22Z" fill="#727976"/>
<path d="M11.0788 11.3284L14.5441 10.3477L12.8681 12.3616L14.1769 13.1173L16.4872 9.88505L15.3682 9.23876L9.76959 10.5723L11.0788 11.3284ZM24.2149 9.23644L23.1457 8.61914L19.0194 11.0014L20.0882 11.6187L24.2149 9.23644Z" fill="#727976"/>
</svg>
