<svg width="54" height="37" viewBox="0 0 54 37" fill="none" xmlns="http://www.w3.org/2000/svg">
<g clip-path="url(#clip0_25_695)">
<path d="M46.4419 13.3751C46.1643 11.3754 45.0536 9.63916 43.0495 8.07055L41.8905 7.29223L41.1178 8.45372C40.1278 9.95049 39.6328 12.034 39.7898 14.0337C39.8622 14.7282 40.0916 15.9974 40.8039 17.0871C40.0916 17.4822 38.6791 18.0091 36.7957 17.9731H0.818479L0.746041 18.3922C0.408 20.3919 0.408 26.6544 4.45242 31.456C7.53101 35.1081 12.1308 36.9641 18.1431 36.9641C31.1818 36.9641 40.816 30.9411 45.3433 19.9728C47.118 20.0087 50.9451 19.9848 52.913 16.2129C52.9613 16.1291 53.082 15.9016 53.4201 15.1832L53.6132 14.788L52.5146 14.0456C51.3073 13.2673 48.5668 12.968 46.4419 13.3751ZM29.5882 0H24.1192V4.9932H29.5882V0ZM29.5882 5.99903H24.1192V10.9922H29.5882V5.99903ZM23.1171 5.99903H17.6481V10.9922H23.1171V5.99903ZM16.6581 5.99903H11.1891V10.9922H16.6581V5.99903ZM10.187 11.9981H4.71802V16.9913H10.187V11.9981ZM16.6581 11.9981H11.1891V16.9913H16.6581V11.9981ZM23.1171 11.9981H17.6481V16.9913H23.1171V11.9981ZM29.5882 11.9981H24.1192V16.9913H29.5882V11.9981ZM36.0593 11.9981H30.5902V16.9913H36.0593V11.9981Z" fill="#727976"/>
</g>
<defs>
<clipPath id="clip0_25_695">
<rect width="53" height="37" fill="white" transform="translate(0.613373)"/>
</clipPath>
</defs>
</svg>
