<svg width="39" height="37" viewBox="0 0 39 37" fill="none" xmlns="http://www.w3.org/2000/svg">
<g clip-path="url(#clip0_25_697)">
<path fill-rule="evenodd" clip-rule="evenodd" d="M19.5568 0C9.08156 0 0.613373 8.47917 0.613373 18.9691C0.613373 27.3542 6.03923 34.452 13.5663 36.9642C14.5074 37.153 14.8521 36.556 14.8521 36.0538C14.8521 35.614 14.8211 34.1067 14.8211 32.5361C9.55151 33.6669 8.45417 30.2749 8.45417 30.2749C7.60731 28.0764 6.35254 27.5114 6.35254 27.5114C4.6278 26.3494 6.47817 26.3494 6.47817 26.3494C8.39135 26.475 9.39525 28.2965 9.39525 28.2965C11.0886 31.1856 13.8172 30.3693 14.9149 29.8667C15.0716 28.6419 15.5737 27.7939 16.1069 27.323C11.904 26.8832 7.48207 25.2502 7.48207 17.9639C7.48207 15.8911 8.23431 14.1953 9.42627 12.8764C9.23821 12.4054 8.57941 10.4579 9.61472 7.85132C9.61472 7.85132 11.2142 7.34874 14.8207 9.79845C16.3648 9.38322 17.9572 9.172 19.5568 9.17022C21.1562 9.17022 22.7868 9.39029 24.2924 9.79845C27.8993 7.34874 29.4988 7.85132 29.4988 7.85132C30.5341 10.4579 29.8749 12.4054 29.6869 12.8764C30.9102 14.1953 31.6315 15.8911 31.6315 17.9639C31.6315 25.2502 27.2095 26.8516 22.9752 27.323C23.6654 27.9196 24.261 29.05 24.261 30.8403C24.261 33.384 24.23 35.4256 24.23 36.0534C24.23 36.556 24.5751 37.153 25.5158 36.9645C33.0429 34.4516 38.4687 27.3542 38.4687 18.9691C38.4998 8.47917 30.0006 0 19.5568 0Z" fill="#727976"/>
</g>
<defs>
<clipPath id="clip0_25_697">
<rect width="38" height="37" fill="white" transform="translate(0.613373)"/>
</clipPath>
</defs>
</svg>
