<svg width="66" height="25" viewBox="0 0 66 25" fill="none" xmlns="http://www.w3.org/2000/svg">
<path d="M4.93332 7.6835C4.80601 7.6835 4.77418 7.61984 4.83784 7.52436L5.50623 6.665C5.56989 6.56952 5.72903 6.50586 5.85634 6.50586H17.219C17.3463 6.50586 17.3781 6.60134 17.3145 6.69683L16.7734 7.52436C16.7097 7.61984 16.5506 7.71533 16.4551 7.71533L4.93332 7.6835Z" fill="#727976"/>
<path d="M0.127313 10.6112C2.65595e-07 10.6112 -0.0318282 10.5476 0.031828 10.4521L0.700219 9.59273C0.763875 9.49725 0.923016 9.43359 1.05033 9.43359H15.564C15.6913 9.43359 15.7549 9.52908 15.7231 9.62456L15.4685 10.3884C15.4366 10.5158 15.3093 10.5794 15.182 10.5794L0.127313 10.6112Z" fill="#727976"/>
<path d="M7.82977 13.5395C7.70245 13.5395 7.67063 13.444 7.73428 13.3485L8.17988 12.5528C8.24353 12.4573 8.37084 12.3618 8.49816 12.3618H14.8638C14.9911 12.3618 15.0548 12.4573 15.0548 12.5846L14.9911 13.3485C14.9911 13.4758 14.8638 13.5713 14.7683 13.5713L7.82977 13.5395Z" fill="#727976"/>
<path d="M40.8673 7.11072C38.8622 7.61997 37.4936 8.00191 35.5202 8.51116C35.0428 8.63847 35.011 8.6703 34.5972 8.19288C34.1198 7.6518 33.7697 7.30169 33.1013 6.98341C31.0961 5.99674 29.1546 6.28319 27.3404 7.46083C25.1761 8.86127 24.0621 10.9301 24.0939 13.5082C24.1257 16.0544 25.8763 18.1551 28.3907 18.5052C30.555 18.7916 32.3692 18.0278 33.8015 16.4045C34.0879 16.0544 34.3426 15.6725 34.6609 15.2269C33.515 15.2269 32.0828 15.2269 28.518 15.2269C27.8496 15.2269 27.6905 14.8131 27.9133 14.272C28.3271 13.2854 29.0909 11.6303 29.5365 10.8028C29.632 10.6118 29.8548 10.2935 30.3322 10.2935C31.9555 10.2935 37.9392 10.2935 41.9177 10.2935C41.854 11.1529 41.854 12.0123 41.7267 12.8716C41.3766 15.1632 40.5172 17.2639 39.1168 19.1099C36.8252 22.1336 33.8333 24.0115 30.0458 24.5207C26.9266 24.9345 24.0303 24.3297 21.484 22.42C19.1287 20.6377 17.7919 18.2824 17.4418 15.3542C17.0281 11.8849 18.0466 8.76578 20.1472 6.02856C22.407 3.06855 25.3989 1.19069 29.0591 0.522297C32.0509 -0.0187816 34.9155 0.331328 37.4936 2.08188C39.1805 3.19586 40.3899 4.72361 41.1856 6.56964C41.3766 6.85609 41.2493 7.01524 40.8673 7.11072Z" fill="#727976"/>
<path d="M51.4025 24.7114C48.5061 24.6477 45.8644 23.8202 43.6364 21.9105C41.7586 20.2873 40.5809 18.2184 40.199 15.7677C39.6261 12.1711 40.6127 8.98829 42.7771 6.15559C45.1005 3.10009 47.9014 1.50868 51.6889 0.840288C54.9354 0.267382 57.9909 0.585663 60.7599 2.46352C63.2744 4.18224 64.8339 6.5057 65.2477 9.5612C65.7888 13.858 64.5475 17.3591 61.5875 20.3509C59.4868 22.4834 56.9087 23.8202 53.9487 24.4249C53.0894 24.5841 52.23 24.6159 51.4025 24.7114ZM58.9776 11.8528C58.9457 11.4391 58.9457 11.1208 58.8821 10.8025C58.3092 7.65151 55.4128 5.86913 52.3891 6.56935C49.4291 7.23774 47.5194 9.1156 46.8192 12.1074C46.2463 14.59 47.4558 17.1045 49.7474 18.123C51.498 18.8868 53.2485 18.7914 54.9354 17.932C57.4498 16.627 58.8184 14.59 58.9776 11.8528Z" fill="#727976"/>
</svg>
