<svg width="43" height="39" viewBox="0 0 43 39" fill="none" xmlns="http://www.w3.org/2000/svg">
<g clip-path="url(#clip0_67_361)">
<path d="M21.3838 -0.0134541C16.3343 2.39555 9.2637 10.2125 21.3773 22.2088C21.6673 20.1598 22.1311 17.7767 22.6439 15.4136C23.9301 9.48588 25.5248 3.68493 25.4582 3.60453C24.4434 2.37852 23.1045 1.16539 21.3838 -0.0134541Z" fill="#727976"/>
<path fill-rule="evenodd" clip-rule="evenodd" d="M25.455 3.58716C25.5067 3.64958 25.6075 3.77452 25.6075 3.77452C25.6075 3.77452 22.8936 18.1727 21.3715 22.1995C20.9712 21.7199 20.3801 21.0608 19.795 19.9567C18.9724 18.4045 17.5029 14.2483 18.9584 9.9286C20.3459 5.81044 23.0761 4.20498 25.455 3.58716Z" fill="#727976"/>
<path fill-rule="evenodd" clip-rule="evenodd" d="M25.6093 3.77041C31.351 10.9449 26.1156 18.5196 21.3722 22.1989C19.2887 20.0231 17.4282 15.1424 19.1858 10.0097C20.5941 5.897 23.2523 4.44256 25.6093 3.77041Z" fill="#727976"/>
<path d="M42.3462 13.6262C37.9903 10.0142 27.6859 6.65753 21.3152 22.127C23.3734 21.603 25.8192 21.1072 28.2662 20.663C34.4043 19.5489 40.5493 18.7602 40.598 18.6697C41.3409 17.2892 41.9383 15.6225 42.3462 13.6262Z" fill="#727976"/>
<path fill-rule="evenodd" clip-rule="evenodd" d="M40.5777 18.675C40.54 18.7452 40.4633 18.8835 40.4633 18.8835C40.4633 18.8835 25.7365 21.9558 21.3043 22.1306C21.5934 21.5881 21.9737 20.8059 22.7771 19.8588C23.9067 18.5273 27.2324 15.6197 31.9141 15.2731C36.3773 14.9427 39.0165 16.7775 40.5777 18.675Z" fill="#727976"/>
<path fill-rule="evenodd" clip-rule="evenodd" d="M40.4591 18.8827C36.0362 26.7733 26.7285 24.9754 21.304 22.1292C22.5048 19.4295 26.3534 15.8955 31.9255 15.509C36.3904 15.1994 38.8562 17.0265 40.4591 18.8827Z" fill="#727976"/>
<path d="M5.79407 38.5126C11.2481 40.0331 21.9852 38.898 21.3014 22.1927C19.6553 23.5089 17.6462 24.9574 15.6145 26.3591C10.518 29.8754 5.27952 33.0976 5.2732 33.2001C5.17627 34.7619 5.33057 36.5255 5.79407 38.5126Z" fill="#727976"/>
<path fill-rule="evenodd" clip-rule="evenodd" d="M5.27182 33.2001C5.27675 33.1206 5.28856 32.9632 5.28856 32.9632C5.28856 32.9632 17.3558 24.1581 21.3006 22.1924C21.2651 22.8053 21.2469 23.6742 20.9141 24.8659C20.4461 26.5414 18.6453 30.5501 14.546 32.7743C10.638 34.8946 7.47936 34.2956 5.27182 33.2001Z" fill="#727976"/>
<path fill-rule="evenodd" clip-rule="evenodd" d="M5.28832 32.9634C6.00324 23.958 15.1935 21.8054 21.3006 22.1925C21.3394 25.1463 19.3257 29.9407 14.4348 32.5647C10.5158 34.6672 7.51694 34.0045 5.28832 32.9634Z" fill="#727976"/>
<path d="M36.4373 38.85C38.5488 33.747 38.4741 23.2712 21.2828 22.1917C22.4649 23.9166 23.7458 26.0055 24.9765 28.1113C28.0637 33.3937 30.8351 38.7826 30.9395 38.7993C32.5304 39.0554 34.3536 39.0902 36.4373 38.85Z" fill="#727976"/>
<path fill-rule="evenodd" clip-rule="evenodd" d="M30.9412 38.8052C30.8602 38.7922 30.7 38.7644 30.7 38.7644C30.7 38.7644 22.898 26.2055 21.2831 22.195C21.9078 22.293 22.7965 22.401 23.9843 22.8463C25.6543 23.4723 29.5808 25.627 31.445 29.8135C33.2222 33.8046 32.2879 36.7895 30.9412 38.8052Z" fill="#727976"/>
<path fill-rule="evenodd" clip-rule="evenodd" d="M30.7 38.7656C21.5413 37.1381 20.2666 28.047 21.2826 22.1952C24.3144 22.4654 29.0249 24.9075 31.2187 29.8995C32.9766 33.8996 31.9932 36.7239 30.7 38.7656Z" fill="#727976"/>
<path d="M0.44743 13.2872C0.695406 18.8491 5.19753 28.4126 21.2226 22.1712C19.4219 21.0884 17.3778 19.7139 15.3718 18.3027C10.3401 14.7629 5.5492 10.9928 5.4476 11.0213C3.89847 11.4559 2.23269 12.1908 0.44743 13.2872Z" fill="#727976"/>
<path fill-rule="evenodd" clip-rule="evenodd" d="M5.45757 11.0546C5.53637 11.0325 5.69304 10.9906 5.69304 10.9906C5.69304 10.9906 18.0649 19.2001 21.2224 22.1898C20.6157 22.3625 19.7658 22.6369 18.5027 22.7286C16.7268 22.8574 12.2624 22.5358 8.80479 19.4898C5.50857 16.586 5.09148 13.4637 5.45757 11.0546Z" fill="#727976"/>
<path fill-rule="evenodd" clip-rule="evenodd" d="M5.69391 10.9972C14.6669 8.64027 19.6635 16.4149 21.2184 22.1904C18.3616 23.2161 13.0681 22.9612 8.97301 19.3191C5.69172 16.4007 5.38732 13.4063 5.69391 10.9972Z" fill="#727976"/>
</g>
<defs>
<clipPath id="clip0_67_361">
<rect width="42" height="39" fill="white" transform="translate(0.371094)"/>
</clipPath>
</defs>
</svg>
