<svg width="911" height="127" viewBox="0 0 911 127" fill="none" xmlns="http://www.w3.org/2000/svg">
<g clip-path="url(#clip0_13_583)">
<path fill-rule="evenodd" clip-rule="evenodd" d="M122.679 83.9019C124.954 77.3873 126.19 70.3858 126.19 63.095C126.19 28.2486 97.9412 0 63.095 0C28.2486 0 0 28.2486 0 63.095C0 80.337 6.91613 95.9642 18.1256 107.352L82.1273 43.3505L97.9287 59.1516L122.679 83.9019ZM111.154 103.979L82.1273 74.9529L36.6725 120.408C44.71 124.119 53.6607 126.19 63.095 126.19C82.3442 126.19 99.581 117.57 111.154 103.979Z" fill="#10B981"/>
</g>
<g clip-path="url(#clip1_13_583)">
<path d="M257.525 0C222.015 0 193.265 28.223 193.202 63.0668H193.19V111.887H193.202C193.218 119.789 199.754 126.19 207.813 126.19H257.531C293.047 126.167 321.792 97.9482 321.792 63.1233C321.792 28.2795 293.009 0.0565333 257.468 0.0565333L257.525 0Z" fill="#51A2DA"/>
<path d="M270.598 25.9502C260.566 25.9502 251.704 33.3558 250.478 43.0734C250.395 43.8868 250.372 44.4732 250.367 45.2106L250.379 84.9412C250.379 92.5626 244.562 97.7496 237.294 97.7496C230.016 97.7496 224.153 92.0459 224.153 84.9289C224.272 77.1159 230.648 72.1607 238.086 71.9449H238.125L245.676 71.8767V61.3866L238.125 61.4425C224.589 61.3231 213.844 71.7189 213.452 84.9353C213.452 97.7873 224.218 108.265 237.29 108.265C249.621 108.265 259.883 98.8174 261.003 86.9955C261.165 82.9716 261.086 77.6611 261.086 77.6611C261.109 75.4745 261.051 76.2597 261.074 71.9179L270.44 71.8497C277.687 71.9 277.606 61.1937 270.357 61.341L261.072 61.4086C261.072 56.0191 261.159 50.6628 261.072 45.2651C261.079 40.5966 265.587 36.4712 270.589 36.4712C275.592 36.4712 280.885 38.9207 280.885 45.2651C280.885 46.1715 280.866 46.6991 280.815 47.0349C280.256 49.9772 282.306 52.7892 285.325 53.2137C288.345 53.6333 291.118 51.4945 291.417 48.5183C291.59 47.3418 291.584 46.3038 291.584 45.2661C291.584 34.0786 281.389 25.9688 270.591 25.9688L270.598 25.9502Z" fill="white"/>
</g>
<g clip-path="url(#clip2_13_583)">
<path d="M456.288 3.00487C441.243 10.4572 420.075 34.4335 455.765 70.7217C456.672 64.4716 458.103 57.1993 459.679 49.987C463.632 31.8955 468.498 14.1833 468.302 13.9398C465.317 10.2263 461.37 6.55913 456.288 3.00487Z" fill="url(#paint0_linear_13_583)"/>
<path fill-rule="evenodd" clip-rule="evenodd" d="M468.303 13.9463C468.455 14.1353 468.751 14.5136 468.751 14.5136C468.751 14.5136 460.374 58.4269 455.767 70.7253C454.59 69.2732 452.851 67.2787 451.141 63.9291C448.735 59.2195 444.47 46.5931 448.886 33.4041C453.096 20.8305 461.232 15.8805 468.303 13.9463Z" fill="#FFFB64"/>
<path fill-rule="evenodd" clip-rule="evenodd" d="M468.751 14.5146C485.617 36.2355 469.918 59.4168 455.766 70.7251C449.636 64.1456 444.229 49.3242 449.558 33.6557C453.828 21.1009 461.745 16.6134 468.751 14.5146Z" fill="url(#paint1_linear_13_583)"/>
<path d="M517.978 44.3485C505.232 33.4535 474.949 23.4806 455.786 70.7502C461.864 69.1044 469.085 67.5348 476.307 66.1227C494.424 62.5803 512.553 60.0289 512.699 59.7519C514.923 55.5292 516.726 50.4386 517.978 44.3485Z" fill="url(#paint2_linear_13_583)"/>
<path fill-rule="evenodd" clip-rule="evenodd" d="M512.706 59.7501C512.593 59.9651 512.363 60.3882 512.363 60.3882C512.363 60.3882 468.863 70.1086 455.79 70.7491C456.656 69.0888 457.797 66.6959 460.189 63.7905C463.554 59.7054 473.433 50.7643 487.246 49.5942C500.415 48.4788 508.15 54.0059 512.706 59.7501Z" fill="#FFFB64"/>
<path fill-rule="evenodd" clip-rule="evenodd" d="M512.364 60.3888C499.122 84.5466 471.716 79.293 455.79 70.7499C459.399 62.4919 470.838 51.627 487.282 50.3134C500.458 49.2609 507.684 54.7699 512.364 60.3888Z" fill="url(#paint3_linear_13_583)"/>
<path d="M410.014 120.499C426.124 125.145 457.833 121.696 455.791 70.7272C450.931 74.7408 445 79.1573 439.001 83.4314C423.954 94.1528 408.487 103.977 408.468 104.289C408.184 109.054 408.642 114.435 410.014 120.499Z" fill="url(#paint4_linear_13_583)"/>
<path fill-rule="evenodd" clip-rule="evenodd" d="M408.469 104.29C408.483 104.048 408.518 103.567 408.518 103.567C408.518 103.567 444.144 76.7199 455.791 70.7281C455.687 72.5979 455.635 75.2487 454.653 78.8841C453.273 83.9952 447.961 96.2231 435.857 103.003C424.319 109.467 414.99 107.635 408.469 104.29Z" fill="#FFFB64"/>
<path fill-rule="evenodd" clip-rule="evenodd" d="M408.518 103.567C410.617 76.094 437.755 69.5389 455.791 70.7278C455.91 79.7395 449.969 94.3642 435.529 102.363C423.958 108.772 415.101 106.746 408.518 103.567Z" fill="url(#paint5_linear_13_583)"/>
<path d="M500.424 121.528C506.689 105.925 506.535 73.9204 455.796 70.7276C459.275 75.9902 463.042 82.3642 466.662 88.7903C475.742 104.91 483.888 121.356 484.196 121.407C488.891 122.18 494.272 122.275 500.424 121.528Z" fill="url(#paint6_linear_13_583)"/>
<path fill-rule="evenodd" clip-rule="evenodd" d="M484.196 121.406C483.957 121.366 483.484 121.282 483.484 121.282C483.484 121.282 460.537 82.9676 455.796 70.7269C457.639 71.0226 460.262 71.3471 463.764 72.6998C468.689 74.6017 480.264 81.1594 485.74 93.936C490.96 106.116 488.183 115.24 484.196 121.406Z" fill="#FFFB64"/>
<path fill-rule="evenodd" clip-rule="evenodd" d="M483.484 121.282C456.465 116.367 452.761 88.6071 455.796 70.7268C464.742 71.5334 478.629 78.9636 485.071 94.1979C490.234 106.405 487.314 115.037 483.484 121.282Z" fill="url(#paint7_linear_13_583)"/>
<path d="M393.973 43.4556C394.843 60.2315 408.43 89.1736 455.817 70.7345C450.449 67.4273 444.352 63.2344 438.367 58.9319C423.355 48.1396 409.052 36.6585 408.751 36.7421C404.166 38.0156 399.242 40.1921 393.973 43.4556Z" fill="url(#paint8_linear_13_583)"/>
<path fill-rule="evenodd" clip-rule="evenodd" d="M408.748 36.7309C408.981 36.666 409.445 36.5434 409.445 36.5434C409.445 36.5434 446.371 61.6257 455.817 70.7283C454.02 71.2352 451.503 72.0438 447.756 72.2906C442.487 72.6375 429.226 71.5605 418.888 62.2811C409.033 53.4346 407.719 43.9966 408.748 36.7309Z" fill="#FFFB64"/>
<path fill-rule="evenodd" clip-rule="evenodd" d="M409.445 36.5406C436.033 29.6335 451.06 53.2415 455.818 70.7274C447.36 73.7583 431.634 72.8622 419.385 61.7611C409.57 52.8658 408.593 43.8119 409.445 36.5406Z" fill="url(#paint9_linear_13_583)"/>
</g>
<path d="M609.585 73.5614C619.054 73.5614 626.73 65.8852 626.73 56.4162C626.73 46.9472 619.054 39.271 609.585 39.271C600.116 39.271 592.439 46.9472 592.439 56.4162C592.439 65.8852 600.116 73.5614 609.585 73.5614Z" fill="#E95420"/>
<path d="M680.995 35.9657C690.464 35.9657 698.14 28.2895 698.14 18.8205C698.14 9.35146 690.464 1.67529 680.995 1.67529C671.526 1.67529 663.85 9.35146 663.85 18.8205C663.85 28.2895 671.526 35.9657 680.995 35.9657Z" fill="#E95420"/>
<path d="M648.256 100.55C635.902 97.9035 625.583 90.0154 619.781 78.8286C615.211 80.9082 610.067 81.5406 605.119 80.6279C612.14 97.8709 627.03 110.394 645.309 114.312C649.319 115.173 653.406 115.59 657.487 115.564C654.338 111.424 652.585 106.43 652.467 101.228C651.053 101.072 649.644 100.844 648.262 100.544L648.256 100.55Z" fill="#E95420"/>
<path d="M677.135 117.787C686.605 117.787 694.281 110.111 694.281 100.642C694.281 91.1728 686.605 83.4966 677.135 83.4966C667.666 83.4966 659.99 91.1728 659.99 100.642C659.99 110.111 667.666 117.787 677.135 117.787Z" fill="#E95420"/>
<path d="M700.995 94.3436C706.328 87.6224 710.083 79.6756 711.889 71.2334C715.044 56.5068 712.097 41.0565 703.805 28.5269C701.83 33.1815 698.479 37.1125 694.163 39.8179C698.792 48.5405 700.2 58.6059 698.127 68.2868C697.11 73.0261 695.317 77.4917 692.794 81.5727C696.83 84.8844 699.678 89.3369 701.002 94.3501L700.995 94.3436Z" fill="#E95420"/>
<path d="M608.261 31.8263C608.698 31.8002 609.135 31.7937 609.565 31.7937C611.299 31.7937 613.027 31.9762 614.741 32.3478C617.538 32.9475 620.165 34.0036 622.571 35.503C630.289 24.401 642.747 17.7385 656.242 17.4908C656.314 16.1935 656.49 14.9027 656.757 13.6315C657.546 9.96123 659.149 6.52568 661.444 3.58557C639.879 1.87757 618.927 13.0057 608.255 31.8328L608.261 31.8263Z" fill="#E95420"/>
<path fill-rule="evenodd" clip-rule="evenodd" d="M847.697 0C842.08 13.7704 838.693 22.7779 832.439 36.139C836.273 40.2032 840.979 44.9361 848.622 50.2814C840.405 46.9003 834.801 43.5057 830.612 39.9831C822.609 56.6828 810.07 80.4708 784.626 126.19C804.624 114.644 820.127 107.526 834.575 104.81C833.954 102.142 833.602 99.2557 833.626 96.2442L833.649 95.6035C833.967 82.7908 840.632 72.9379 848.527 73.6069C856.423 74.2759 862.56 85.2112 862.243 98.0239C862.183 100.435 861.911 102.754 861.436 104.905C875.727 107.701 891.064 114.801 910.792 126.19C906.902 119.028 903.43 112.572 900.114 106.424C894.891 102.376 889.443 97.1071 878.331 91.4035C885.969 93.3882 891.438 95.678 895.7 98.2374C861.988 35.4704 859.258 27.1299 847.697 0Z" fill="#1793D1"/>
<defs>
<linearGradient id="paint0_linear_13_583" x1="456.369" y1="3.00538" x2="455.947" y2="70.7227" gradientUnits="userSpaceOnUse">
<stop stop-color="#FFFB64"/>
<stop offset="1" stop-color="#FFBF48"/>
</linearGradient>
<linearGradient id="paint1_linear_13_583" x1="456.37" y1="3.0137" x2="455.948" y2="70.7262" gradientUnits="userSpaceOnUse">
<stop stop-color="#FDE14E"/>
<stop offset="1" stop-color="#F9A731"/>
</linearGradient>
<linearGradient id="paint2_linear_13_583" x1="518.009" y1="44.4227" x2="455.724" y2="70.603" gradientUnits="userSpaceOnUse">
<stop stop-color="#FFFB64"/>
<stop offset="1" stop-color="#FFBF48"/>
</linearGradient>
<linearGradient id="paint3_linear_13_583" x1="518.018" y1="44.4203" x2="455.728" y2="70.6027" gradientUnits="userSpaceOnUse">
<stop stop-color="#FDE14E"/>
<stop offset="1" stop-color="#F9A731"/>
</linearGradient>
<linearGradient id="paint4_linear_13_583" x1="409.955" y1="120.444" x2="455.895" y2="70.8233" gradientUnits="userSpaceOnUse">
<stop stop-color="#FFFB64"/>
<stop offset="1" stop-color="#FFBF48"/>
</linearGradient>
<linearGradient id="paint5_linear_13_583" x1="409.955" y1="120.444" x2="455.895" y2="70.824" gradientUnits="userSpaceOnUse">
<stop stop-color="#FDE14E"/>
<stop offset="1" stop-color="#F9A731"/>
</linearGradient>
<linearGradient id="paint6_linear_13_583" x1="500.364" y1="121.581" x2="455.558" y2="70.9384" gradientUnits="userSpaceOnUse">
<stop stop-color="#FFFB64"/>
<stop offset="1" stop-color="#FFBF48"/>
</linearGradient>
<linearGradient id="paint7_linear_13_583" x1="500.363" y1="121.579" x2="455.558" y2="70.9375" gradientUnits="userSpaceOnUse">
<stop stop-color="#FDE14E"/>
<stop offset="1" stop-color="#F9A731"/>
</linearGradient>
<linearGradient id="paint8_linear_13_583" x1="394.005" y1="43.3819" x2="455.912" y2="70.5171" gradientUnits="userSpaceOnUse">
<stop stop-color="#FFFB64"/>
<stop offset="1" stop-color="#FFBF48"/>
</linearGradient>
<linearGradient id="paint9_linear_13_583" x1="394" y1="43.3692" x2="455.915" y2="70.5056" gradientUnits="userSpaceOnUse">
<stop stop-color="#FDE14E"/>
<stop offset="1" stop-color="#F9A731"/>
</linearGradient>
<clipPath id="clip0_13_583">
<rect width="126.19" height="126.19" fill="white"/>
</clipPath>
<clipPath id="clip1_13_583">
<rect width="128.602" height="126.19" fill="white" transform="translate(193.19)"/>
</clipPath>
<clipPath id="clip2_13_583">
<rect width="124" height="119" fill="white" transform="translate(394 3)"/>
</clipPath>
</defs>
</svg>
