<svg width="129" height="127" viewBox="0 0 129 127" fill="none" xmlns="http://www.w3.org/2000/svg">
<g clip-path="url(#clip0_13_512)">
<path d="M64.525 0C29.0154 0 0.264784 28.223 0.201963 63.0668H0.190002V111.887H0.201963C0.21848 119.789 6.7536 126.19 14.8128 126.19H64.5313C100.047 126.167 128.792 97.9482 128.792 63.1233C128.792 28.2795 100.009 0.0565333 64.4685 0.0565333L64.525 0Z" fill="#51A2DA"/>
<path d="M77.5975 25.9502C67.5659 25.9502 58.7044 33.3558 57.4777 43.0734C57.3953 43.8868 57.3716 44.4732 57.3668 45.2106L57.3786 84.9412C57.3786 92.5626 51.5618 97.7496 44.294 97.7496C37.0162 97.7496 31.153 92.0459 31.153 84.9289C31.2724 77.1159 37.6484 72.1607 45.0857 71.9449H45.1255L52.6758 71.8767V61.3866L45.1255 61.4425C31.5888 61.3231 20.844 71.7189 20.4515 84.9353C20.4515 97.7873 31.2182 108.265 44.2901 108.265C56.6208 108.265 66.8825 98.8174 68.0031 86.9955C68.1647 82.9716 68.086 77.6611 68.086 77.6611C68.1086 75.4745 68.0514 76.2597 68.0742 71.9179L77.4401 71.8497C84.687 71.9 84.6056 61.1937 77.3566 61.341L68.0722 61.4086C68.0722 56.0191 68.1587 50.6628 68.0722 45.2651C68.0789 40.5966 72.5871 36.4712 77.5891 36.4712C82.5924 36.4712 87.8845 38.9207 87.8845 45.2651C87.8845 46.1715 87.866 46.6991 87.8148 47.0349C87.2564 49.9772 89.3058 52.7892 92.3253 53.2137C95.3449 53.6333 98.1176 51.4945 98.4168 48.5183C98.5901 47.3418 98.5836 46.3038 98.5836 45.2661C98.5836 34.0786 88.3886 25.9688 77.5906 25.9688L77.5975 25.9502Z" fill="white"/>
</g>
<defs>
<clipPath id="clip0_13_512">
<rect width="128.602" height="126.19" fill="white" transform="translate(0.190002)"/>
</clipPath>
</defs>
</svg>
