<svg width="1280" height="714" viewBox="0 0 1280 714" fill="none" xmlns="http://www.w3.org/2000/svg">
<rect y="2" width="1280" height="712" fill="#8F7D8D"/>
<circle cx="163.5" cy="450.5" r="256.5" fill="#1FFF91"/>
<circle cx="1026" cy="187" r="187" fill="#1FFF91"/>
<g filter="url(#filter0_b_59_3)">
<rect width="1280" height="714" fill="#252827" fill-opacity="0.8"/>
</g>
<g opacity="0.14">
<path d="M1168.04 204.515V211.36H1156.97V238.485H1148.12V211.36H1137V204.515H1168.04Z" fill="white"/>
<path d="M1185.72 204C1188.88 204 1191.66 204.498 1194.06 205.493C1196.5 206.453 1198.61 207.877 1200.39 209.765L1196.12 215.478C1194.64 213.934 1193.05 212.784 1191.33 212.029C1189.65 211.24 1187.73 210.846 1185.57 210.846C1184.3 210.846 1183.27 210.983 1182.48 211.257C1181.69 211.532 1181.13 211.909 1180.78 212.39C1180.44 212.87 1180.27 213.419 1180.27 214.037C1180.27 214.757 1180.59 215.375 1181.25 215.89C1181.93 216.37 1183.03 216.782 1184.54 217.125L1190.25 218.412C1193.65 219.201 1196.14 220.35 1197.72 221.86C1199.29 223.37 1200.08 225.377 1200.08 227.882C1200.08 230.284 1199.47 232.326 1198.23 234.007C1197 235.654 1195.3 236.907 1193.14 237.765C1190.97 238.588 1188.5 239 1185.72 239C1183.46 239 1181.3 238.76 1179.24 238.279C1177.18 237.765 1175.33 237.044 1173.68 236.118C1172.03 235.191 1170.64 234.127 1169.51 232.926L1173.78 227.007C1174.64 228.002 1175.69 228.895 1176.92 229.684C1178.19 230.439 1179.56 231.039 1181.04 231.485C1182.55 231.931 1184.08 232.154 1185.62 232.154C1186.82 232.154 1187.82 232.034 1188.61 231.794C1189.43 231.554 1190.03 231.194 1190.41 230.713C1190.78 230.233 1190.97 229.667 1190.97 229.015C1190.97 228.294 1190.72 227.694 1190.2 227.213C1189.69 226.699 1188.71 226.27 1187.27 225.926L1180.99 224.537C1179.07 224.091 1177.35 223.507 1175.84 222.787C1174.37 222.032 1173.2 221.037 1172.34 219.801C1171.48 218.532 1171.05 216.953 1171.05 215.066C1171.05 212.939 1171.64 211.051 1172.8 209.404C1173.97 207.723 1175.65 206.402 1177.85 205.441C1180.04 204.48 1182.67 204 1185.72 204Z" fill="white"/>
<path d="M1162.55 641.757C1161.9 644.125 1160.85 646.081 1159.41 647.625C1157.97 649.135 1156.25 650.25 1154.26 650.971C1152.27 651.657 1150.08 652 1147.68 652C1144.25 652 1141.28 651.314 1138.77 649.941C1136.27 648.534 1134.35 646.527 1133.01 643.919C1131.67 641.311 1131 638.172 1131 634.5C1131 630.828 1131.67 627.689 1133.01 625.081C1134.35 622.473 1136.27 620.483 1138.77 619.11C1141.28 617.703 1144.23 617 1147.62 617C1149.99 617 1152.17 617.343 1154.16 618.029C1156.15 618.681 1157.83 619.694 1159.21 621.066C1160.58 622.439 1161.56 624.206 1162.14 626.368L1154.37 629.507C1153.89 627.38 1153.1 625.922 1152 625.132C1150.94 624.343 1149.58 623.949 1147.93 623.949C1146.32 623.949 1144.91 624.343 1143.71 625.132C1142.55 625.922 1141.64 627.105 1140.99 628.684C1140.37 630.228 1140.06 632.167 1140.06 634.5C1140.06 636.799 1140.35 638.738 1140.93 640.316C1141.52 641.895 1142.39 643.078 1143.56 643.868C1144.76 644.657 1146.24 645.051 1147.99 645.051C1149.63 645.051 1151.02 644.605 1152.15 643.713C1153.32 642.787 1154.11 641.38 1154.52 639.493L1162.55 641.757Z" fill="white"/>
<path d="M147.116 275.515V296.412C147.116 300.701 145.881 304.047 143.41 306.449C140.94 308.816 137.44 310 132.91 310C129.582 310 126.905 309.417 124.881 308.25C122.856 307.049 121.467 305.402 120.712 303.309C119.957 301.181 119.802 298.762 120.249 296.051L128.896 294.507C128.484 297.63 128.621 299.843 129.307 301.147C130.028 302.417 131.332 303.051 133.219 303.051C135.072 303.051 136.376 302.434 137.131 301.199C137.886 299.963 138.263 298.059 138.263 295.485V275.515H147.116Z" fill="white"/>
<path d="M167.301 275C170.458 275 173.237 275.498 175.639 276.493C178.076 277.453 180.186 278.877 181.97 280.765L177.698 286.478C176.223 284.934 174.627 283.784 172.911 283.029C171.23 282.24 169.308 281.846 167.147 281.846C165.877 281.846 164.848 281.983 164.058 282.257C163.269 282.532 162.703 282.909 162.36 283.39C162.017 283.87 161.845 284.419 161.845 285.037C161.845 285.757 162.171 286.375 162.823 286.89C163.509 287.37 164.607 287.782 166.117 288.125L171.831 289.412C175.228 290.201 177.715 291.35 179.294 292.86C180.872 294.37 181.661 296.377 181.661 298.882C181.661 301.284 181.044 303.326 179.808 305.007C178.573 306.654 176.875 307.907 174.713 308.765C172.551 309.588 170.081 310 167.301 310C165.036 310 162.875 309.76 160.816 309.279C158.757 308.765 156.904 308.044 155.257 307.118C153.61 306.191 152.22 305.127 151.088 303.926L155.36 298.007C156.218 299.002 157.264 299.895 158.5 300.684C159.769 301.439 161.142 302.039 162.617 302.485C164.127 302.931 165.654 303.154 167.198 303.154C168.399 303.154 169.394 303.034 170.183 302.794C171.007 302.554 171.607 302.194 171.985 301.713C172.362 301.233 172.551 300.667 172.551 300.015C172.551 299.294 172.294 298.694 171.779 298.213C171.264 297.699 170.286 297.27 168.845 296.926L162.566 295.537C160.644 295.091 158.929 294.507 157.419 293.787C155.943 293.032 154.777 292.037 153.919 290.801C153.061 289.532 152.632 287.953 152.632 286.066C152.632 283.939 153.215 282.051 154.382 280.404C155.549 278.723 157.23 277.402 159.426 276.441C161.622 275.48 164.247 275 167.301 275Z" fill="white"/>
<path d="M504.551 609.757C503.9 612.125 502.853 614.081 501.412 615.625C499.971 617.135 498.255 618.25 496.265 618.971C494.275 619.657 492.078 620 489.676 620C486.245 620 483.277 619.314 480.772 617.941C478.267 616.534 476.346 614.527 475.007 611.919C473.669 609.311 473 606.172 473 602.5C473 598.828 473.669 595.689 475.007 593.081C476.346 590.473 478.267 588.483 480.772 587.11C483.277 585.703 486.228 585 489.625 585C491.993 585 494.172 585.343 496.162 586.029C498.152 586.681 499.833 587.694 501.206 589.066C502.578 590.439 503.556 592.206 504.14 594.368L496.368 597.507C495.887 595.38 495.098 593.922 494 593.132C492.936 592.343 491.581 591.949 489.934 591.949C488.321 591.949 486.914 592.343 485.713 593.132C484.547 593.922 483.637 595.105 482.985 596.684C482.368 598.228 482.059 600.167 482.059 602.5C482.059 604.799 482.35 606.738 482.934 608.316C483.517 609.895 484.392 611.078 485.559 611.868C486.76 612.657 488.235 613.051 489.985 613.051C491.632 613.051 493.022 612.605 494.154 611.713C495.321 610.787 496.11 609.38 496.522 607.493L504.551 609.757Z" fill="white"/>
<path d="M524.762 589.169V616.397H517.814V589.169H524.762ZM534.181 599.618V605.897H508.343V599.618H534.181Z" fill="white"/>
<path d="M555.825 589.169V616.397H548.877V589.169H555.825ZM565.245 599.618V605.897H539.406V599.618H565.245Z" fill="white"/>
<path d="M359.464 108.689C359.297 108.689 359.255 108.606 359.339 108.481L360.214 107.355C360.298 107.23 360.506 107.146 360.673 107.146H375.561C375.728 107.146 375.769 107.271 375.686 107.397L374.977 108.481C374.894 108.606 374.685 108.731 374.56 108.731L359.464 108.689Z" fill="white"/>
<path d="M353.167 112.526C353 112.526 352.958 112.442 353.042 112.317L353.917 111.191C354.001 111.066 354.209 110.983 354.376 110.983H373.392C373.559 110.983 373.643 111.108 373.601 111.233L373.267 112.234C373.226 112.401 373.059 112.484 372.892 112.484L353.167 112.526Z" fill="white"/>
<path d="M363.259 116.362C363.092 116.362 363.05 116.237 363.134 116.112L363.717 115.07C363.801 114.945 363.968 114.819 364.135 114.819H372.475C372.642 114.819 372.725 114.945 372.725 115.111L372.642 116.112C372.642 116.279 372.475 116.404 372.35 116.404L363.259 116.362Z" fill="white"/>
<path d="M406.546 107.939C403.919 108.606 402.125 109.106 399.54 109.774C398.914 109.94 398.873 109.982 398.33 109.356C397.705 108.648 397.246 108.189 396.37 107.772C393.743 106.479 391.199 106.854 388.822 108.397C385.987 110.232 384.527 112.943 384.569 116.321C384.61 119.657 386.904 122.409 390.198 122.868C393.034 123.243 395.411 122.243 397.288 120.116C397.663 119.657 397.997 119.157 398.414 118.573C396.913 118.573 395.036 118.573 390.365 118.573C389.49 118.573 389.281 118.031 389.573 117.322C390.115 116.029 391.116 113.86 391.7 112.776C391.825 112.526 392.117 112.109 392.742 112.109C394.869 112.109 402.709 112.109 407.922 112.109C407.839 113.235 407.839 114.361 407.672 115.487C407.213 118.489 406.087 121.242 404.252 123.66C401.25 127.622 397.33 130.083 392.367 130.75C388.28 131.292 384.485 130.5 381.149 127.997C378.063 125.662 376.312 122.576 375.853 118.74C375.311 114.194 376.645 110.107 379.398 106.521C382.358 102.642 386.278 100.182 391.074 99.3062C394.994 98.5973 398.747 99.056 402.125 101.35C404.336 102.809 405.92 104.811 406.963 107.23C407.213 107.605 407.046 107.814 406.546 107.939Z" fill="white"/>
<path d="M420.349 131C416.554 130.917 413.093 129.832 410.174 127.33C407.713 125.203 406.17 122.493 405.67 119.282C404.919 114.569 406.212 110.399 409.048 106.688C412.092 102.684 415.762 100.599 420.725 99.7232C424.978 98.9726 428.982 99.3896 432.61 101.85C435.904 104.102 437.948 107.146 438.49 111.15C439.199 116.779 437.572 121.367 433.694 125.287C430.942 128.081 427.564 129.832 423.685 130.625C422.56 130.833 421.434 130.875 420.349 131ZM430.274 114.152C430.233 113.61 430.233 113.193 430.149 112.776C429.399 108.648 425.604 106.312 421.642 107.23C417.764 108.105 415.262 110.566 414.344 114.486C413.594 117.739 415.178 121.033 418.181 122.368C420.474 123.368 422.768 123.243 424.978 122.117C428.273 120.408 430.066 117.739 430.274 114.152Z" fill="white"/>
<path d="M880.637 75.0003C879.332 75.0063 878.085 75.1176 876.989 75.3117C873.758 75.8824 873.172 77.077 873.172 79.28V82.1896H880.806V83.1594H873.172H870.307C868.088 83.1594 866.145 84.493 865.537 87.0299C864.836 89.9378 864.805 91.7524 865.537 94.7887C866.08 97.0488 867.376 98.6592 869.595 98.6592H872.22V95.1713C872.22 92.6515 874.4 90.4288 876.989 90.4288H884.614C886.737 90.4288 888.431 88.6811 888.431 86.5494V79.28C888.431 77.2111 886.686 75.657 884.614 75.3117C883.303 75.0934 881.942 74.9942 880.637 75.0003ZM876.508 77.3403C877.297 77.3403 877.941 77.9948 877.941 78.7996C877.941 79.6014 877.297 80.2499 876.508 80.2499C875.717 80.2499 875.076 79.6014 875.076 78.7996C875.076 77.9948 875.717 77.3403 876.508 77.3403Z" fill="white"/>
<path d="M889.383 83.1594V86.5494C889.383 89.1777 887.155 91.3898 884.614 91.3898H876.989C874.9 91.3898 873.172 93.1774 873.172 95.2692V102.539C873.172 104.607 874.971 105.824 876.989 106.418C879.405 107.128 881.723 107.257 884.614 106.418C886.536 105.861 888.431 104.742 888.431 102.539V99.629H880.806V98.6592H888.431H892.248C894.467 98.6592 895.294 97.1116 896.065 94.7887C896.862 92.3973 896.828 90.0976 896.065 87.0299C895.517 84.8212 894.47 83.1594 892.248 83.1594H889.383ZM885.094 101.569C885.886 101.569 886.527 102.217 886.527 103.019C886.527 103.824 885.886 104.478 885.094 104.478C884.306 104.478 883.662 103.824 883.662 103.019C883.662 102.217 884.306 101.569 885.094 101.569Z" fill="white"/>
<path d="M77.5515 531.757C76.8995 534.125 75.8529 536.081 74.4118 537.625C72.9706 539.135 71.2549 540.25 69.2647 540.971C67.2745 541.657 65.0784 542 62.6765 542C59.2451 542 56.277 541.314 53.7721 539.941C51.2672 538.534 49.3456 536.527 48.0074 533.919C46.6691 531.311 46 528.172 46 524.5C46 520.828 46.6691 517.689 48.0074 515.081C49.3456 512.473 51.2672 510.483 53.7721 509.11C56.277 507.703 59.2279 507 62.625 507C64.9926 507 67.1716 507.343 69.1618 508.029C71.152 508.681 72.8333 509.694 74.2059 511.066C75.5784 512.439 76.5564 514.206 77.1397 516.368L69.3676 519.507C68.8873 517.38 68.098 515.922 67 515.132C65.9363 514.343 64.5809 513.949 62.9338 513.949C61.3211 513.949 59.9142 514.343 58.7132 515.132C57.5466 515.922 56.6373 517.105 55.9853 518.684C55.3676 520.228 55.0588 522.167 55.0588 524.5C55.0588 526.799 55.3505 528.738 55.9338 530.316C56.5172 531.895 57.3922 533.078 58.5588 533.868C59.7598 534.657 61.2353 535.051 62.9853 535.051C64.6324 535.051 66.0221 534.605 67.1544 533.713C68.3211 532.787 69.1103 531.38 69.5221 529.493L77.5515 531.757Z" fill="white"/>
<path d="M108.159 507.515L102.652 541.485H96.7327L102.189 507.515H108.159ZM110.578 528.051V533.301H80.0562V528.051H110.578ZM95.5489 507.515L90.093 541.485H84.1224L89.5783 507.515H95.5489ZM112.792 515.699V520.949H82.2695V515.699H112.792Z" fill="white"/>
<path d="M273 550.097C264.784 550.097 258.097 556.787 258.097 565C258.097 573.213 264.787 579.903 273 579.903C281.213 579.903 287.903 573.213 287.903 565C287.903 556.787 281.213 550.097 273 550.097ZM272.978 551.421C273.233 551.428 273.475 551.534 273.653 551.717C273.831 551.9 273.93 552.146 273.93 552.402C273.93 552.662 273.827 552.911 273.643 553.095C273.459 553.279 273.21 553.382 272.95 553.382C272.69 553.382 272.44 553.279 272.256 553.095C272.072 552.911 271.969 552.662 271.969 552.402C271.969 552.271 271.995 552.141 272.046 552.02C272.097 551.899 272.172 551.79 272.266 551.698C272.36 551.607 272.472 551.535 272.594 551.488C272.716 551.44 272.847 551.417 272.978 551.421ZM275.223 553.035C276.944 553.358 278.574 554.051 280.001 555.067C281.427 556.083 282.615 557.397 283.483 558.918L282.326 561.529C282.127 561.98 282.332 562.509 282.78 562.711L285.006 563.698C285.075 564.394 285.083 565.094 285.031 565.791H283.792C283.669 565.791 283.618 565.873 283.618 565.993V566.561C283.618 567.897 282.865 568.191 282.203 568.263C281.572 568.336 280.875 567.998 280.787 567.614C280.415 565.523 279.797 565.079 278.82 564.306C280.034 563.537 281.295 562.399 281.295 560.879C281.295 559.237 280.169 558.203 279.403 557.695C278.325 556.986 277.133 556.844 276.812 556.844H264.012C265.782 554.867 268.154 553.528 270.762 553.035L272.272 554.618C272.612 554.974 273.177 554.99 273.533 554.646L275.223 553.035ZM261.288 560.293C261.543 560.3 261.785 560.407 261.963 560.59C262.141 560.773 262.24 561.018 262.24 561.273C262.24 561.534 262.136 561.783 261.953 561.967C261.769 562.151 261.519 562.254 261.259 562.254C260.999 562.254 260.75 562.151 260.566 561.967C260.382 561.783 260.279 561.534 260.279 561.273C260.279 561.142 260.305 561.012 260.356 560.892C260.407 560.771 260.482 560.661 260.576 560.57C260.67 560.479 260.781 560.407 260.904 560.359C261.026 560.312 261.157 560.289 261.288 560.293ZM284.665 560.337C284.92 560.345 285.162 560.451 285.34 560.634C285.518 560.817 285.617 561.062 285.617 561.318C285.617 561.578 285.514 561.827 285.33 562.011C285.146 562.195 284.897 562.298 284.637 562.298C284.377 562.298 284.127 562.195 283.943 562.011C283.759 561.827 283.656 561.578 283.656 561.318C283.656 561.186 283.682 561.057 283.733 560.936C283.784 560.815 283.859 560.706 283.953 560.614C284.047 560.523 284.159 560.451 284.281 560.403C284.403 560.356 284.534 560.333 284.665 560.337ZM263.135 560.495H264.844V568.2H261.395C260.969 566.704 260.836 565.14 261.004 563.594L263.116 562.654C263.567 562.453 263.772 561.926 263.57 561.475L263.135 560.495ZM270.267 560.577H274.337C274.548 560.577 275.822 560.82 275.822 561.775C275.822 562.566 274.844 562.85 274.04 562.85H270.263L270.267 560.577ZM270.267 566.113H273.385C273.668 566.113 274.907 566.195 275.301 567.778C275.424 568.263 275.699 569.846 275.885 570.353C276.071 570.921 276.824 572.056 277.628 572.056H282.717C282.376 572.512 282.003 572.944 281.601 573.348L279.529 572.904C279.047 572.8 278.571 573.109 278.467 573.591L277.975 575.886C276.393 576.603 274.676 576.969 272.94 576.961C271.203 576.953 269.489 576.57 267.915 575.839L267.423 573.544C267.319 573.061 266.846 572.753 266.364 572.857L264.336 573.292C263.96 572.904 263.61 572.491 263.29 572.056H273.148C273.259 572.056 273.334 572.037 273.334 571.933V568.446C273.334 568.345 273.259 568.323 273.148 568.323H270.263L270.267 566.113ZM265.717 574.099C265.972 574.106 266.214 574.213 266.392 574.396C266.57 574.579 266.669 574.824 266.669 575.079C266.669 575.339 266.566 575.589 266.382 575.773C266.198 575.956 265.949 576.06 265.689 576.06C265.429 576.06 265.179 575.956 264.996 575.773C264.812 575.589 264.708 575.339 264.708 575.079C264.708 574.948 264.735 574.818 264.786 574.697C264.837 574.576 264.911 574.467 265.006 574.376C265.1 574.284 265.211 574.213 265.333 574.165C265.456 574.117 265.586 574.095 265.717 574.099ZM280.235 574.143C280.491 574.15 280.733 574.257 280.911 574.44C281.088 574.623 281.188 574.868 281.188 575.123C281.188 575.383 281.084 575.633 280.9 575.817C280.717 576.001 280.467 576.104 280.207 576.104C279.947 576.104 279.698 576.001 279.514 575.817C279.33 575.633 279.227 575.383 279.227 575.123C279.227 574.992 279.253 574.862 279.304 574.741C279.355 574.621 279.43 574.511 279.524 574.42C279.618 574.328 279.729 574.257 279.852 574.209C279.974 574.162 280.104 574.139 280.235 574.143Z" fill="white"/>
<path fill-rule="evenodd" clip-rule="evenodd" d="M287.071 565C287.071 568.732 285.588 572.311 282.949 574.949C280.311 577.588 276.732 579.071 273 579.071C269.268 579.071 265.689 577.588 263.051 574.949C260.412 572.311 258.929 568.732 258.929 565C258.929 561.268 260.412 557.689 263.051 555.051C265.689 552.412 269.268 550.929 273 550.929C276.732 550.929 280.311 552.412 282.949 555.051C285.588 557.689 287.071 561.268 287.071 565ZM286.806 563.641L289 565L286.806 566.359L288.691 568.121L286.276 569.026L287.783 571.123L285.233 571.539L286.304 573.891L283.722 573.799L284.315 576.315L281.799 575.722L281.891 578.304L279.539 577.233L279.123 579.783L277.026 578.276L276.121 580.691L274.359 578.806L273 581L271.641 578.806L269.879 580.691L268.974 578.276L266.877 579.783L266.461 577.233L264.109 578.304L264.201 575.722L261.685 576.315L262.278 573.799L259.696 573.891L260.767 571.539L258.217 571.123L259.724 569.026L257.309 568.121L259.194 566.359L257 565L259.194 563.641L257.309 561.879L259.724 560.974L258.217 558.877L260.767 558.461L259.696 556.109L262.278 556.201L261.685 553.685L264.201 554.278L264.109 551.696L266.461 552.767L266.877 550.217L268.974 551.724L269.879 549.309L271.641 551.194L273 549L274.359 551.194L276.121 549.309L277.026 551.724L279.123 550.217L279.539 552.767L281.891 551.696L281.799 554.278L284.315 553.685L283.722 556.201L286.304 556.109L285.233 558.461L287.783 558.877L286.276 560.974L288.691 561.879L286.806 563.641Z" fill="white" stroke="white" stroke-width="3" stroke-linecap="round" stroke-linejoin="round"/>
<g clip-path="url(#clip0_59_3)">
<path d="M235.222 400.941C234.781 400.941 234.368 400.823 233.986 400.618L230.069 398.3C229.48 397.977 229.775 397.86 229.951 397.801C230.746 397.537 230.894 397.478 231.718 397.009C231.807 396.95 231.924 396.979 232.013 397.038L235.016 398.828C235.134 398.887 235.281 398.887 235.369 398.828L247.118 392.049C247.236 391.991 247.295 391.873 247.295 391.727V378.199C247.295 378.053 247.236 377.935 247.118 377.876L235.369 371.127C235.252 371.069 235.104 371.069 235.016 371.127L223.267 377.876C223.15 377.935 223.091 378.082 223.091 378.199V391.727C223.091 391.844 223.15 391.991 223.267 392.049L226.477 393.898C228.214 394.778 229.304 393.751 229.304 392.724V379.373C229.304 379.197 229.451 379.021 229.657 379.021H231.159C231.335 379.021 231.512 379.168 231.512 379.373V392.724C231.512 395.043 230.246 396.392 228.037 396.392C227.36 396.392 226.83 396.392 225.329 395.659L222.237 393.898C221.471 393.458 221 392.636 221 391.756V378.229C221 377.348 221.471 376.527 222.237 376.087L233.986 369.308C234.722 368.897 235.723 368.897 236.459 369.308L248.208 376.087C248.973 376.527 249.444 377.348 249.444 378.229V391.756C249.444 392.636 248.973 393.458 248.208 393.898L236.459 400.677C236.076 400.853 235.634 400.941 235.222 400.941ZM238.844 391.639C233.691 391.639 232.631 389.291 232.631 387.296C232.631 387.12 232.778 386.944 232.984 386.944H234.516C234.692 386.944 234.839 387.061 234.839 387.237C235.075 388.792 235.752 389.555 238.873 389.555C241.347 389.555 242.407 388.998 242.407 387.677C242.407 386.914 242.112 386.357 238.255 385.975C235.046 385.653 233.043 384.948 233.043 382.395C233.043 380.019 235.046 378.61 238.402 378.61C242.171 378.61 244.026 379.901 244.262 382.718C244.262 382.806 244.233 382.894 244.174 382.982C244.115 383.041 244.026 383.1 243.938 383.1H242.407C242.26 383.1 242.112 382.982 242.083 382.836C241.73 381.222 240.817 380.693 238.402 380.693C235.693 380.693 235.369 381.632 235.369 382.337C235.369 383.188 235.752 383.452 239.403 383.921C243.025 384.391 244.733 385.066 244.733 387.589C244.704 390.171 242.584 391.639 238.844 391.639Z" fill="white"/>
</g>
<g clip-path="url(#clip1_59_3)">
<path d="M318.525 222L307.488 241.127L296.416 222H288.999L307.488 254L325.976 222H318.525Z" fill="white"/>
<path d="M311.757 220.589L307.488 227.978L303.218 220.589H296.395L307.488 239.788L318.581 220.589H311.757Z" fill="white"/>
</g>
<path fill-rule="evenodd" clip-rule="evenodd" d="M226.601 91.7469C226.601 91.7469 225.378 92.4582 227.471 92.6983C230.007 92.9878 231.303 92.9461 234.097 92.418C234.097 92.418 234.833 92.8784 235.859 93.2772C229.594 95.9612 221.68 93.1217 226.601 91.7469Z" fill="white"/>
<path fill-rule="evenodd" clip-rule="evenodd" d="M225.835 88.2437C225.835 88.2437 224.464 89.2588 226.558 89.4752C229.267 89.7549 231.406 89.7779 235.109 89.0652C235.109 89.0652 235.62 89.5843 236.424 89.8679C228.851 92.0831 220.416 90.0422 225.835 88.2437Z" fill="white"/>
<path fill-rule="evenodd" clip-rule="evenodd" d="M232.288 82.3004C233.832 84.0783 231.883 85.6768 231.883 85.6768C231.883 85.6768 235.802 83.6539 234.003 81.1195C232.321 78.7571 231.032 77.5836 238.011 73.5364C238.011 73.5364 227.056 76.2717 232.288 82.3004Z" fill="white"/>
<path fill-rule="evenodd" clip-rule="evenodd" d="M240.573 94.3384C240.573 94.3384 241.478 95.0843 239.577 95.661C235.962 96.7561 224.527 97.0864 221.351 95.7049C220.21 95.2079 222.351 94.5192 223.024 94.3737C223.726 94.2218 224.127 94.2495 224.127 94.2495C222.858 93.3554 215.921 96.0056 220.604 96.7656C233.376 98.8359 243.886 95.8331 240.573 94.3384Z" fill="white"/>
<path fill-rule="evenodd" clip-rule="evenodd" d="M227.189 84.6136C227.189 84.6136 221.373 85.9953 225.129 86.4975C226.716 86.7097 229.877 86.6609 232.823 86.4137C235.23 86.2117 237.646 85.7796 237.646 85.7796C237.646 85.7796 236.798 86.1434 236.184 86.5625C230.277 88.1161 218.868 87.3926 222.153 85.8042C224.93 84.4609 227.189 84.6136 227.189 84.6136Z" fill="white"/>
<path fill-rule="evenodd" clip-rule="evenodd" d="M237.622 90.4448C243.626 87.3257 240.85 84.3279 238.912 84.7316C238.438 84.8305 238.225 84.9162 238.225 84.9162C238.225 84.9162 238.402 84.6396 238.738 84.5206C242.572 83.1735 245.519 88.4951 237.502 90.6026C237.502 90.6026 237.594 90.5191 237.622 90.4448Z" fill="white"/>
<path fill-rule="evenodd" clip-rule="evenodd" d="M234.003 67C234.003 67 237.327 70.3263 230.849 75.4398C225.653 79.5433 229.664 81.8821 230.847 84.5557C227.814 81.8196 225.589 79.4106 227.081 77.1689C229.273 73.8787 235.344 72.283 234.003 67Z" fill="white"/>
<path fill-rule="evenodd" clip-rule="evenodd" d="M227.779 98.8996C233.541 99.268 242.391 98.6946 242.601 95.9679C242.601 95.9679 242.198 97.0016 237.839 97.8217C232.92 98.7477 226.853 98.6399 223.255 98.0459C223.255 98.0459 223.992 98.6559 227.779 98.8996Z" fill="white"/>
<path d="M929.143 599.626C931.178 599.626 932.697 599.253 933.658 598.516C934.609 597.788 935.266 596.525 935.61 594.764C935.931 593.117 935.809 591.968 935.247 591.348C934.672 590.714 933.43 590.393 931.554 590.393H928.302L926.499 599.626H929.143ZM918.506 611C918.355 611 918.212 610.933 918.116 610.817C918.019 610.701 917.98 610.548 918.009 610.4L922.787 585.932C922.834 585.695 923.042 585.524 923.284 585.524H933.582C936.818 585.524 939.227 586.399 940.742 588.124C942.264 589.859 942.734 592.283 942.139 595.33C941.896 596.571 941.48 597.724 940.9 598.756C940.32 599.789 939.554 600.745 938.622 601.598C937.506 602.638 936.243 603.392 934.871 603.835C933.521 604.273 931.788 604.495 929.718 604.495H925.549L924.358 610.592C924.312 610.829 924.103 611 923.861 611H918.506Z" fill="white"/>
<path d="M954.278 604.476C954.127 604.476 953.984 604.409 953.888 604.292C953.792 604.176 953.753 604.024 953.782 603.876L955.892 593.05C956.092 592.02 956.043 591.281 955.752 590.969C955.575 590.778 955.041 590.458 953.461 590.458H949.638L946.985 604.068C946.939 604.305 946.731 604.476 946.489 604.476H941.185C941.034 604.476 940.891 604.409 940.795 604.292C940.699 604.176 940.66 604.024 940.689 603.876L945.459 579.407C945.505 579.171 945.713 579 945.955 579H951.26C951.41 579 951.553 579.067 951.649 579.183C951.745 579.299 951.784 579.452 951.755 579.6L950.604 585.505H954.717C957.85 585.505 959.974 586.056 961.212 587.189C962.473 588.345 962.866 590.192 962.382 592.682L960.162 604.068C960.116 604.305 959.908 604.476 959.666 604.476H954.278Z" fill="white"/>
<path d="M970.774 599.626C972.809 599.626 974.328 599.253 975.289 598.516C976.24 597.788 976.897 596.525 977.241 594.764C977.562 593.117 977.44 591.968 976.878 591.348C976.303 590.714 975.061 590.393 973.185 590.393H969.933L968.13 599.626H970.774ZM960.137 611C959.986 611 959.843 610.933 959.747 610.817C959.651 610.701 959.612 610.548 959.64 610.4L964.418 585.932C964.465 585.695 964.673 585.524 964.915 585.524H975.213C978.45 585.524 980.858 586.399 982.373 588.124C983.895 589.858 984.365 592.283 983.77 595.33C983.527 596.571 983.111 597.724 982.531 598.756C981.951 599.789 981.185 600.745 980.253 601.598C979.137 602.638 977.874 603.392 976.502 603.835C975.152 604.273 973.419 604.495 971.35 604.495H967.18L965.989 610.592C965.943 610.829 965.735 611 965.492 611H960.137Z" fill="white"/>
<g clip-path="url(#clip2_59_3)">
<path d="M79 152L95.0533 135.947L111 152H79Z" fill="white"/>
<path d="M79 120H95.0533L79 137.333V120Z" fill="white"/>
<path d="M95.0533 120L79 136.907V152L95.0533 135.947L111 120H95.0533Z" fill="white"/>
</g>
<path d="M1155.84 500.963C1158.79 500.963 1161.08 501.668 1162.71 503.078C1164.36 504.462 1165.19 506.312 1165.19 508.628C1165.19 511.17 1164.38 513.108 1162.75 514.442C1161.12 515.776 1158.83 516.443 1155.87 516.443L1155.27 516.783H1150.35V525.882H1144V500.963H1155.84ZM1154.93 512.177C1156.19 512.177 1157.13 511.925 1157.75 511.422C1158.38 510.918 1158.69 510.113 1158.69 509.005C1158.69 507.923 1158.38 507.13 1157.75 506.627C1157.13 506.123 1156.19 505.872 1154.93 505.872H1150.35V512.177H1154.93ZM1158.73 513.536L1166.66 525.882H1159.52L1153.17 514.971L1158.73 513.536Z" fill="white"/>
<path d="M1175.66 526.26C1174.38 526.26 1173.25 526.046 1172.28 525.618C1171.32 525.165 1170.57 524.448 1170.02 523.466C1169.47 522.484 1169.19 521.201 1169.19 519.615V507.004H1175.58V518.105C1175.58 519.313 1175.82 520.156 1176.3 520.634C1176.77 521.113 1177.45 521.352 1178.33 521.352C1178.78 521.352 1179.2 521.276 1179.6 521.125C1180 520.949 1180.35 520.697 1180.65 520.37C1180.96 520.018 1181.18 519.577 1181.33 519.049C1181.51 518.495 1181.59 517.853 1181.59 517.123V507.004H1187.98V525.882H1182.27L1182.08 522.333C1181.48 523.667 1180.64 524.662 1179.57 525.316C1178.49 525.945 1177.19 526.26 1175.66 526.26Z" fill="white"/>
<path d="M1204.63 526.26C1203.4 526.26 1202.32 525.983 1201.36 525.429C1200.44 524.876 1199.67 524.12 1199.07 523.164C1198.47 522.182 1198.08 521.075 1197.91 519.841L1198.51 519.049L1198.17 525.882H1192.57V499H1198.96V512.932L1198.36 512.026C1198.71 510.465 1199.42 509.182 1200.5 508.175C1201.58 507.143 1203.03 506.627 1204.86 506.627C1206.31 506.627 1207.6 507.017 1208.73 507.797C1209.88 508.577 1210.77 509.71 1211.4 511.195C1212.05 512.655 1212.37 514.43 1212.37 516.519C1212.37 518.558 1212.05 520.307 1211.4 521.767C1210.74 523.227 1209.84 524.347 1208.69 525.127C1207.54 525.882 1206.19 526.26 1204.63 526.26ZM1202.42 521.54C1203.52 521.54 1204.38 521.138 1205.01 520.332C1205.63 519.502 1205.95 518.205 1205.95 516.443C1205.95 514.681 1205.63 513.398 1205.01 512.592C1204.38 511.762 1203.52 511.346 1202.42 511.346C1201.69 511.346 1201.06 511.56 1200.54 511.988C1200.04 512.391 1199.65 512.97 1199.37 513.725C1199.1 514.48 1198.96 515.399 1198.96 516.481C1198.96 517.563 1199.1 518.482 1199.37 519.237C1199.65 519.992 1200.05 520.571 1200.57 520.974C1201.1 521.352 1201.71 521.54 1202.42 521.54Z" fill="white"/>
<path d="M1234 507.004L1227.16 525.882C1226.46 527.871 1225.7 529.457 1224.87 530.64C1224.04 531.823 1223.07 532.679 1221.94 533.207C1220.81 533.736 1219.46 534 1217.88 534C1216.83 534 1215.86 533.887 1214.99 533.66C1214.11 533.434 1213.35 533.119 1212.7 532.716L1213.97 528.374C1214.42 528.702 1214.9 528.928 1215.4 529.054C1215.9 529.205 1216.54 529.28 1217.32 529.28C1218.04 529.28 1218.63 529.155 1219.08 528.903C1219.56 528.651 1219.93 528.173 1220.21 527.468L1220.7 526.298L1218.52 521.163L1212.88 507.004H1219.91L1222.8 517.765L1223.7 521.767L1224.76 517.614L1227.65 507.004H1234Z" fill="white"/>
<g clip-path="url(#clip3_59_3)">
<mask id="mask0_59_3" style="mask-type:alpha" maskUnits="userSpaceOnUse" x="619" y="63" width="32" height="32">
<path fill-rule="evenodd" clip-rule="evenodd" d="M641.692 94.7815C642.196 94.9778 642.77 94.9652 643.279 94.7204L649.867 91.5503C650.56 91.2172 651 90.5165 651 89.7479V68.2523C651 67.4836 650.56 66.783 649.867 66.4499L643.279 63.2796C642.612 62.9584 641.83 63.037 641.244 63.463C641.161 63.5239 641.081 63.5918 641.006 63.6667L628.394 75.1733L622.9 71.0031C622.388 70.6149 621.673 70.6467 621.198 71.0788L619.436 72.6816C618.855 73.21 618.855 74.1241 619.435 74.6534L624.199 79L619.435 83.3466C618.855 83.876 618.855 84.79 619.436 85.3185L621.198 86.9213C621.673 87.3534 622.388 87.3852 622.9 86.997L628.394 82.8268L641.006 94.3333C641.206 94.533 641.44 94.6833 641.692 94.7815ZM643.005 71.7356L633.435 79L643.005 86.2644V71.7356Z" fill="white"/>
</mask>
<g mask="url(#mask0_59_3)">
<path d="M649.868 66.4549L643.274 63.2802C642.511 62.9128 641.599 63.0678 641 63.6667L619.416 83.3467C618.835 83.876 618.836 84.7901 619.417 85.3185L621.18 86.9214C621.655 87.3534 622.371 87.3852 622.883 86.997L648.875 67.2784C649.748 66.6169 651 67.2389 651 68.3334V68.2569C651 67.4886 650.56 66.7882 649.868 66.4549Z" fill="white"/>
<g filter="url(#filter1_d_59_3)">
<path d="M649.868 91.5452L643.274 94.7198C642.511 95.0874 641.599 94.9323 641 94.3333L619.416 74.6534C618.835 74.1241 618.836 73.21 619.417 72.6815L621.18 71.0787C621.655 70.6467 622.371 70.6148 622.883 71.003L648.875 90.7216C649.748 91.3832 651 90.7612 651 89.6667V89.7432C651 90.5115 650.56 91.2119 649.868 91.5452Z" fill="white"/>
</g>
<g filter="url(#filter2_d_59_3)">
<path d="M643.274 94.7204C642.511 95.0877 641.599 94.9323 641 94.3333C641.738 95.0714 643 94.5486 643 93.5049V64.4951C643 63.4513 641.738 62.9286 641 63.6667C641.599 63.0677 642.511 62.9124 643.274 63.2796L649.867 66.4498C650.559 66.783 651 67.4836 651 68.2522V89.7479C651 90.5165 650.559 91.2172 649.867 91.5503L643.274 94.7204Z" fill="white"/>
</g>
<g style="mix-blend-mode:overlay" opacity="0.25">
<path fill-rule="evenodd" clip-rule="evenodd" d="M641.672 94.7815C642.176 94.9778 642.751 94.9653 643.26 94.7205L649.848 91.5504C650.54 91.2172 650.981 90.5166 650.981 89.7479V68.2523C650.981 67.4836 650.54 66.783 649.848 66.4499L643.26 63.2796C642.592 62.9584 641.811 63.0371 641.225 63.4631C641.141 63.5239 641.061 63.5918 640.987 63.6667L628.374 75.1733L622.88 71.0031C622.369 70.6149 621.654 70.6467 621.179 71.0788L619.417 72.6816C618.836 73.2101 618.835 74.1241 619.415 74.6535L624.18 79L619.415 83.3467C618.835 83.876 618.836 84.79 619.417 85.3185L621.179 86.9213C621.654 87.3534 622.369 87.3852 622.88 86.997L628.374 82.8268L640.987 94.3334C641.186 94.533 641.42 94.6834 641.672 94.7815ZM642.985 71.7357L633.415 79L642.985 86.2644V71.7357Z" fill="white"/>
</g>
</g>
</g>
<path d="M163 652C163 643.169 155.831 636 147 636C138.169 636 131 643.169 131 652C131 660.831 138.169 668 147 668C155.831 668 163 660.831 163 652Z" fill="white"/>
<path d="M158.315 645.37C158.315 642.785 156.215 640.685 153.63 640.685C151.044 640.685 148.945 642.785 148.945 645.37C148.945 647.956 151.044 650.055 153.63 650.055C156.215 650.055 158.315 647.956 158.315 645.37Z" fill="#333836"/>
<path d="M137.48 658.815H142.664V659.996H136.14V649.498H137.48V658.815Z" fill="#333836"/>
<path d="M148.856 659.996V658.944C148.149 659.938 147.446 660.327 146.337 660.327C144.87 660.327 143.933 659.523 143.933 658.267V652.451H145.126V657.794C145.126 658.701 145.731 659.28 146.682 659.28C147.933 659.28 148.741 658.272 148.741 656.729V652.451H149.935V659.996H148.856Z" fill="#333836"/>
<path d="M158.708 660.199C158.319 660.301 158.134 660.327 157.886 660.327C157.108 660.327 156.733 659.982 156.649 659.218C155.8 659.996 155.035 660.327 154.085 660.327C152.56 660.327 151.61 659.465 151.61 658.095C151.61 657.114 152.056 656.438 152.936 656.08C153.396 655.894 153.656 655.836 155.354 655.62C156.304 655.505 156.604 655.288 156.604 654.784V654.466C156.604 653.746 155.999 653.344 154.92 653.344C153.798 653.344 153.25 653.759 153.148 654.683H151.937C151.968 653.936 152.109 653.503 152.454 653.114C152.958 652.552 153.864 652.234 154.96 652.234C156.817 652.234 157.798 652.955 157.798 654.294V658.731C157.798 659.107 158.028 659.324 158.447 659.324C158.518 659.324 158.576 659.324 158.708 659.293V660.199ZM156.604 656.265C156.202 656.451 155.941 656.508 154.673 656.681C153.391 656.866 152.856 657.273 152.856 658.064C152.856 658.829 153.404 659.275 154.341 659.275C155.049 659.275 155.636 659.045 156.127 658.599C156.485 658.267 156.604 658.024 156.604 657.618V656.265Z" fill="#333836"/>
<g clip-path="url(#clip4_59_3)">
<path d="M1180.01 387.119C1177.87 387.119 1176.14 388.855 1176.14 390.991C1176.14 393.128 1177.87 394.864 1180.01 394.864C1182.14 394.864 1183.88 393.128 1183.88 390.991C1183.88 388.855 1182.14 387.119 1180.01 387.119Z" fill="white"/>
<path d="M1175.25 396.316C1175.38 396.366 1175.52 396.4 1175.65 396.4C1175.92 396.4 1176.17 396.3 1176.37 396.099C1176.77 395.699 1176.77 395.048 1176.37 394.647C1176.17 394.447 1175.9 394.347 1175.63 394.347C1175.37 394.347 1175.1 394.447 1174.9 394.647C1174.6 394.948 1174.52 395.398 1174.68 395.766L1172.61 396.567L1164 406.816L1164.18 407L1174.43 398.386L1175.25 396.316Z" fill="white"/>
<path d="M1173.68 400.389C1174.58 401.157 1175.5 401.842 1176.47 402.459C1176.82 402.326 1177.59 402.025 1177.92 401.825C1176.74 401.141 1175.79 400.439 1174.7 399.521L1173.68 400.389Z" fill="white"/>
<path d="M1185.57 383.613L1184.77 385.683C1184.63 385.633 1184.5 385.6 1184.38 385.6C1184.11 385.6 1183.86 385.7 1183.66 385.9C1183.26 386.301 1183.26 386.952 1183.66 387.352C1183.86 387.553 1184.13 387.653 1184.4 387.653C1184.67 387.653 1184.93 387.553 1185.13 387.352C1185.43 387.052 1185.52 386.601 1185.35 386.234L1187.42 385.433L1196.03 375.184L1195.85 375L1185.57 383.613Z" fill="white"/>
<path d="M1184.25 384.147C1183.01 383.38 1181.56 382.929 1180.01 382.929C1175.57 382.929 1171.95 386.551 1171.95 390.991C1171.95 392.544 1172.4 393.996 1173.16 395.231L1173.6 395.064C1173.67 394.63 1173.87 394.23 1174.18 393.896C1174.25 393.829 1174.32 393.779 1174.4 393.712C1174 392.894 1173.77 391.96 1173.77 390.991C1173.77 387.553 1176.57 384.748 1180.01 384.748C1180.99 384.748 1181.91 384.982 1182.73 385.383C1182.78 385.316 1182.83 385.232 1182.9 385.166C1183.21 384.849 1183.61 384.648 1184.06 384.581L1184.25 384.147Z" fill="white"/>
<path d="M1180.01 397.234C1179.02 397.234 1178.11 397.001 1177.29 396.6C1177.24 396.667 1177.19 396.75 1177.12 396.817C1176.8 397.134 1176.4 397.335 1175.95 397.401L1175.79 397.835C1177.02 398.603 1178.47 399.054 1180.03 399.054C1184.47 399.054 1188.09 395.432 1188.09 390.991C1188.09 389.439 1187.64 387.987 1186.87 386.752L1186.43 386.918C1186.37 387.352 1186.17 387.753 1185.85 388.087C1185.78 388.154 1185.72 388.204 1185.63 388.271C1186.03 389.088 1186.27 390.023 1186.27 390.991C1186.25 394.447 1183.45 397.234 1180.01 397.234Z" fill="white"/>
<path d="M1166.7 391.008C1165.04 395.115 1164.95 399.154 1166.72 401.975L1167.61 400.924C1166.4 398.737 1166.4 395.782 1167.46 392.661C1168.29 394.28 1169.36 395.866 1170.63 397.335L1171.48 396.333C1170.06 394.647 1168.92 392.844 1168.11 391.008C1169.17 388.604 1170.83 386.184 1173.01 383.997C1175.15 381.861 1177.55 380.191 1180.01 379.09C1181.81 379.891 1183.63 381.009 1185.35 382.462L1186.35 381.61C1184.85 380.325 1183.25 379.273 1181.66 378.455C1182.2 378.272 1182.71 378.121 1183.23 378.005C1185.87 377.404 1188.17 377.621 1189.94 378.589L1190.99 377.704C1188.91 376.369 1186.1 376.018 1182.95 376.736C1181.96 376.953 1180.98 377.27 1179.99 377.687C1175.22 375.734 1170.54 375.951 1167.76 378.739C1165.6 380.892 1164.88 384.214 1165.75 388.07C1165.97 389.055 1166.3 390.04 1166.7 391.008ZM1168.66 379.657C1170.86 377.454 1174.48 377.137 1178.36 378.439C1176.15 379.574 1174 381.143 1172.08 383.079C1170.13 385.032 1168.57 387.186 1167.46 389.356C1167.29 388.838 1167.12 388.321 1167 387.786C1166.25 384.364 1166.84 381.477 1168.66 379.657Z" fill="white"/>
<path d="M1188.55 385.667C1189.99 387.386 1191.13 389.205 1191.93 390.991L1191.91 391.042C1190.81 393.495 1189.12 395.899 1187.04 397.986C1183.96 401.057 1180.34 403.177 1176.82 403.978C1174.18 404.579 1171.88 404.362 1170.11 403.394L1169.06 404.279C1170.44 405.164 1172.13 405.614 1174.02 405.614C1175 405.614 1176.04 405.497 1177.1 405.247C1180.86 404.396 1184.72 402.159 1187.95 398.92C1189.86 397.018 1191.44 394.864 1192.59 392.644C1193.9 396.517 1193.58 400.139 1191.38 402.342C1189.71 404.012 1187.09 404.629 1184.06 404.145C1183.5 404.496 1182.93 404.813 1182.35 405.097C1183.63 405.431 1184.87 405.614 1186.02 405.614C1188.55 405.614 1190.74 404.813 1192.29 403.261C1196.33 399.221 1194.98 391.192 1189.42 384.665L1188.55 385.667Z" fill="white"/>
<path d="M1192.41 381.076C1193.15 382.428 1193.43 384.114 1193.26 386C1193.65 386.601 1194 387.219 1194.3 387.82C1194.93 384.765 1194.58 382.061 1193.28 380.008L1192.41 381.076Z" fill="white"/>
</g>
<path d="M737 620C737 628.837 729.837 636 721 636C712.164 636 705 628.837 705 620C705 611.164 712.164 604 721 604C729.837 604 737 611.164 737 620Z" fill="white"/>
<path d="M721.269 613.774L725.41 623.993L719.156 619.067L721.269 613.774ZM728.625 626.347L722.256 611.02C722.074 610.578 721.711 610.344 721.269 610.344C720.827 610.344 720.437 610.578 720.255 611.02L713.265 627.832H715.656L718.424 620.9L726.681 627.572C727.014 627.84 727.253 627.962 727.565 627.962C728.189 627.962 728.734 627.494 728.734 626.819C728.734 626.709 728.695 626.535 728.625 626.347Z" fill="#333836"/>
<path d="M862.047 522.041C858.109 527.295 849.696 525.522 844.302 525.777C844.302 525.777 843.347 525.83 842.385 525.988C842.385 525.988 842.749 525.833 843.212 525.673C847.001 524.361 848.791 524.098 851.093 522.914C855.418 520.695 859.723 515.863 860.599 510.843C858.952 515.671 853.945 519.826 849.386 521.514C846.266 522.667 840.623 523.789 840.622 523.789C840.625 523.793 840.397 523.671 840.394 523.668C836.556 521.799 836.445 513.476 843.415 510.793C846.471 509.616 849.395 510.263 852.698 509.475C856.222 508.637 860.303 505.992 861.961 502.535C863.821 508.057 866.055 516.697 862.047 522.041ZM862.116 500.823C861.647 501.939 861.075 502.944 860.415 503.843C857.511 500.859 853.459 499 848.979 499C840.168 499 833 506.178 833 514.999C833 519.623 834.971 523.794 838.114 526.717L838.464 527.028C837.88 526.551 837.79 525.691 838.264 525.106C838.74 524.52 839.599 524.429 840.184 524.904C840.77 525.379 840.859 526.241 840.385 526.827C839.912 527.414 839.051 527.503 838.466 527.029L838.704 527.24C841.484 529.584 845.068 531 848.979 531C857.402 531 864.318 524.437 864.91 516.154C865.348 512.098 864.152 506.948 862.116 500.823Z" fill="white"/>
<g clip-path="url(#clip5_59_3)">
<path d="M900.182 218.206C901.972 218.206 903.423 216.77 903.423 215C903.423 213.23 901.972 211.794 900.182 211.794C898.392 211.794 896.941 213.23 896.941 215C896.941 216.77 898.392 218.206 900.182 218.206Z" fill="white"/>
<path d="M900.182 221.568C909.787 221.568 917.573 218.627 917.573 215C917.573 211.373 909.787 208.432 900.182 208.432C890.577 208.432 882.791 211.373 882.791 215C882.791 218.627 890.577 221.568 900.182 221.568Z" stroke="white"/>
<path d="M894.431 218.284C899.234 226.511 905.701 231.71 908.877 229.897C912.053 228.083 910.735 219.943 905.932 211.716C901.13 203.489 894.662 198.29 891.486 200.103C888.31 201.917 889.629 210.057 894.431 218.284Z" stroke="white"/>
<path d="M894.431 211.716C889.629 219.943 888.31 228.083 891.486 229.897C894.662 231.71 901.13 226.511 905.932 218.284C910.735 210.057 912.053 201.917 908.877 200.103C905.701 198.29 899.234 203.489 894.431 211.716Z" stroke="white"/>
</g>
<g clip-path="url(#clip6_59_3)">
<path d="M407 503C415.837 503 423 495.837 423 487C423 478.163 415.837 471 407 471C398.163 471 391 478.163 391 487C391 495.837 398.163 503 407 503Z" fill="white"/>
<path d="M403.563 479.961C400.312 479.369 397.742 479.989 396.717 481.763C395.953 483.087 396.172 484.842 397.247 486.719C397.269 486.758 397.298 486.792 397.332 486.82C397.367 486.848 397.407 486.868 397.45 486.88C397.492 486.892 397.537 486.896 397.581 486.89C397.625 486.885 397.668 486.871 397.706 486.848C397.745 486.826 397.778 486.797 397.805 486.762C397.832 486.726 397.852 486.686 397.863 486.643C397.874 486.6 397.876 486.555 397.87 486.511C397.864 486.467 397.849 486.425 397.826 486.387C396.857 484.697 396.668 483.182 397.295 482.096C398.146 480.623 400.438 480.07 403.443 480.617C403.53 480.632 403.618 480.611 403.69 480.561C403.761 480.511 403.81 480.434 403.826 480.348C403.842 480.262 403.823 480.173 403.774 480.101C403.724 480.028 403.649 479.978 403.563 479.961ZM398.938 489C400.252 490.444 401.96 491.799 403.907 492.923C408.623 495.646 413.643 496.373 416.117 494.686C416.154 494.662 416.186 494.631 416.21 494.594C416.235 494.557 416.252 494.516 416.261 494.473C416.269 494.429 416.269 494.384 416.26 494.341C416.252 494.298 416.234 494.256 416.209 494.22C416.184 494.183 416.152 494.152 416.115 494.128C416.078 494.104 416.036 494.087 415.993 494.08C415.949 494.072 415.905 494.073 415.861 494.082C415.818 494.092 415.777 494.11 415.741 494.136C413.527 495.645 408.758 494.954 404.241 492.346C402.351 491.255 400.698 489.943 399.431 488.551C399.402 488.518 399.366 488.492 399.326 488.473C399.287 488.454 399.244 488.443 399.2 488.441C399.156 488.439 399.112 488.446 399.071 488.461C399.03 488.475 398.992 488.498 398.959 488.528C398.927 488.557 398.9 488.593 398.882 488.633C398.863 488.672 398.853 488.715 398.851 488.759C398.849 488.803 398.855 488.847 398.87 488.888C398.885 488.929 398.908 488.967 398.938 489Z" fill="#333836"/>
<path d="M415.327 488.594C417.456 486.08 418.199 483.551 417.177 481.78C416.425 480.477 414.835 479.789 412.721 479.762C412.634 479.762 412.55 479.797 412.487 479.858C412.425 479.92 412.39 480.003 412.388 480.091C412.387 480.179 412.421 480.263 412.481 480.326C412.542 480.389 412.625 480.426 412.713 480.429C414.613 480.453 415.983 481.046 416.6 482.113C417.449 483.584 416.786 485.839 414.819 488.163C414.79 488.197 414.768 488.235 414.754 488.277C414.74 488.319 414.735 488.363 414.738 488.407C414.742 488.451 414.754 488.494 414.774 488.533C414.794 488.573 414.822 488.608 414.855 488.636C414.889 488.665 414.928 488.686 414.97 488.699C415.012 488.713 415.056 488.718 415.1 488.714C415.144 488.71 415.187 488.697 415.226 488.677C415.265 488.656 415.299 488.628 415.327 488.594ZM409.857 480.072C407.933 480.485 405.884 481.291 403.917 482.427C399.049 485.237 395.874 489.381 396.315 492.386C396.321 492.43 396.335 492.472 396.358 492.51C396.38 492.548 396.41 492.581 396.445 492.608C396.48 492.634 396.52 492.654 396.563 492.665C396.606 492.676 396.65 492.678 396.694 492.671C396.737 492.665 396.779 492.65 396.817 492.627C396.855 492.604 396.888 492.574 396.914 492.539C396.94 492.503 396.959 492.463 396.969 492.42C396.98 492.377 396.982 492.333 396.975 492.289C396.583 489.621 399.593 485.693 404.25 483.004C406.159 481.902 408.142 481.121 409.997 480.724C410.04 480.716 410.082 480.698 410.118 480.674C410.155 480.649 410.187 480.617 410.211 480.58C410.235 480.544 410.252 480.502 410.26 480.459C410.268 480.415 410.268 480.37 410.259 480.327C410.249 480.284 410.231 480.243 410.206 480.207C410.181 480.17 410.149 480.139 410.111 480.116C410.074 480.092 410.032 480.076 409.989 480.068C409.945 480.061 409.9 480.062 409.857 480.072Z" fill="#333836"/>
<path d="M401.971 494.469C403.084 497.577 404.905 499.49 406.952 499.49C408.445 499.49 409.827 498.472 410.904 496.68C410.927 496.643 410.943 496.601 410.95 496.557C410.957 496.514 410.955 496.469 410.945 496.426C410.934 496.383 410.916 496.343 410.889 496.307C410.863 496.271 410.83 496.241 410.792 496.219C410.755 496.196 410.713 496.181 410.669 496.174C410.625 496.168 410.581 496.17 410.538 496.181C410.495 496.192 410.455 496.212 410.42 496.238C410.384 496.265 410.355 496.299 410.333 496.337C409.364 497.947 408.175 498.823 406.952 498.823C405.252 498.823 403.628 497.117 402.599 494.245C402.585 494.202 402.563 494.164 402.533 494.13C402.504 494.097 402.468 494.07 402.428 494.05C402.389 494.031 402.345 494.02 402.301 494.018C402.257 494.015 402.212 494.022 402.171 494.037C402.129 494.051 402.09 494.075 402.058 494.105C402.025 494.135 401.999 494.171 401.98 494.211C401.962 494.251 401.951 494.295 401.95 494.339C401.948 494.384 401.956 494.428 401.971 494.469H401.971ZM412.136 493.861C412.713 492.02 413.022 489.897 413.022 487.683C413.022 482.161 411.089 477.401 408.336 476.178C408.256 476.144 408.165 476.144 408.084 476.176C408.003 476.208 407.938 476.271 407.903 476.35C407.867 476.43 407.865 476.52 407.895 476.602C407.926 476.684 407.987 476.75 408.066 476.787C410.521 477.878 412.355 482.396 412.355 487.683C412.355 489.831 412.056 491.887 411.5 493.662C411.487 493.704 411.481 493.748 411.485 493.792C411.488 493.836 411.5 493.879 411.521 493.919C411.541 493.958 411.569 493.993 411.602 494.021C411.636 494.05 411.675 494.071 411.718 494.084C411.76 494.098 411.804 494.102 411.848 494.098C411.892 494.094 411.935 494.081 411.974 494.061C412.013 494.04 412.047 494.011 412.075 493.977C412.103 493.943 412.124 493.904 412.137 493.861H412.136ZM418.414 493.535C418.414 492.654 417.7 491.939 416.819 491.939C415.938 491.939 415.224 492.654 415.224 493.535C415.224 494.416 415.938 495.13 416.819 495.13C417.7 495.13 418.414 494.416 418.414 493.535ZM417.748 493.535C417.748 493.657 417.724 493.777 417.677 493.89C417.631 494.003 417.562 494.105 417.476 494.191C417.39 494.278 417.287 494.346 417.175 494.393C417.062 494.439 416.941 494.464 416.819 494.464C416.697 494.464 416.576 494.439 416.464 494.393C416.351 494.346 416.249 494.278 416.162 494.191C416.076 494.105 416.008 494.003 415.961 493.89C415.914 493.777 415.89 493.657 415.89 493.535C415.89 493.288 415.988 493.052 416.162 492.878C416.337 492.704 416.573 492.606 416.819 492.606C417.065 492.606 417.302 492.704 417.476 492.878C417.65 493.052 417.748 493.288 417.748 493.535ZM397.062 495.13C397.943 495.13 398.658 494.416 398.658 493.535C398.658 492.654 397.943 491.939 397.062 491.939C396.181 491.939 395.467 492.654 395.467 493.535C395.467 494.416 396.181 495.13 397.062 495.13ZM397.062 494.464C396.816 494.464 396.58 494.366 396.405 494.191C396.231 494.017 396.133 493.781 396.133 493.535C396.133 493.288 396.231 493.052 396.405 492.878C396.58 492.704 396.816 492.606 397.062 492.606C397.308 492.606 397.545 492.704 397.719 492.878C397.893 493.052 397.991 493.288 397.991 493.535C397.991 493.781 397.893 494.017 397.719 494.191C397.545 494.366 397.308 494.464 397.062 494.464Z" fill="#333836"/>
<path d="M406.952 477.806C407.833 477.806 408.548 477.091 408.548 476.21C408.548 475.329 407.833 474.615 406.952 474.615C406.071 474.615 405.357 475.329 405.357 476.21C405.357 477.091 406.071 477.806 406.952 477.806ZM406.952 477.139C406.706 477.139 406.47 477.041 406.295 476.867C406.121 476.693 406.023 476.456 406.023 476.21C406.023 475.964 406.121 475.728 406.295 475.553C406.47 475.379 406.706 475.281 406.952 475.281C407.198 475.281 407.435 475.379 407.609 475.553C407.783 475.728 407.881 475.964 407.881 476.21C407.881 476.456 407.783 476.693 407.609 476.867C407.435 477.041 407.198 477.139 406.952 477.139ZM407.196 488.812C406.573 488.946 405.959 488.55 405.824 487.927C405.759 487.628 405.816 487.315 405.982 487.058C406.148 486.801 406.409 486.62 406.708 486.555C407.332 486.42 407.945 486.816 408.08 487.44C408.215 488.063 407.819 488.677 407.196 488.812Z" fill="#333836"/>
</g>
<path d="M1038.38 316.028C1038.65 315.625 1038.95 315.574 1039.19 315.574C1039.43 315.574 1039.83 315.625 1040.11 316.028C1042.25 318.98 1045.79 324.864 1048.4 329.206C1050.1 332.035 1051.41 334.209 1051.67 334.486C1052.68 335.524 1054.06 334.877 1054.86 333.699C1055.65 332.54 1055.87 331.725 1055.87 330.857C1055.87 330.265 1044.43 308.912 1043.28 307.135C1042.17 305.425 1041.81 304.993 1039.91 304.993H1038.49C1036.6 304.993 1036.33 305.425 1035.22 307.135C1034.07 308.912 1022.62 330.265 1022.62 330.855C1022.62 331.725 1022.84 332.54 1023.63 333.699C1024.44 334.877 1025.82 335.524 1026.82 334.484C1027.09 334.208 1028.4 332.035 1030.1 329.204C1032.71 324.864 1036.24 318.98 1038.38 316.026L1038.38 316.028Z" fill="white"/>
<path fill-rule="evenodd" clip-rule="evenodd" d="M1069.54 133.242V137.329H1076.92C1078.43 137.329 1081.03 136.223 1081.12 133.129V131.548C1081.12 128.906 1078.95 127.348 1076.92 127.348H1073.24V125.452H1080.53V121.342H1073.54C1071.73 121.342 1069.32 122.832 1069.32 125.61V127.032C1069.32 129.81 1071.71 131.232 1073.54 131.232C1078.61 131.255 1072.32 131.232 1077.01 131.232V133.219M1030.02 132.248C1030.02 132.248 1033.97 131.91 1033.97 126.806C1033.97 121.703 1029.19 121.229 1029.19 121.229H1020.57V137.329H1024.9V133.445L1028.64 137.329H1035.05L1030.02 132.248ZM1028.35 128.952H1024.9V125.271H1028.37C1028.37 125.271 1029.34 125.632 1029.34 127.1C1029.34 128.568 1028.35 128.952 1028.35 128.952ZM1044.66 121.342H1040.26C1037.13 121.342 1036.07 124.187 1036.07 125.542V137.329H1040.47V134.506H1044.59V137.329H1048.86V125.542C1048.86 122.11 1045.74 121.342 1044.66 121.342ZM1044.59 129.945H1040.44V126.039C1040.44 126.039 1040.44 125.158 1041.82 125.158H1043.33C1044.55 125.158 1044.57 126.039 1044.57 126.039V129.945H1044.59Z" fill="white"/>
<path d="M1055.44 121.342H1050.87V137.329H1055.44V121.342Z" fill="white"/>
<path fill-rule="evenodd" clip-rule="evenodd" d="M1061.87 133.197V121.342H1057.32V133.197V137.329H1061.87H1068.03V133.197H1061.87Z" fill="white"/>
<path fill-rule="evenodd" clip-rule="evenodd" d="M993.384 137.329H1011.21C1011.21 137.329 1007.8 121.771 1019.08 115.471C1021.54 114.274 1029.37 109.803 1042.18 119.287C1042.59 118.948 1042.97 118.677 1042.97 118.677C1042.97 118.677 1031.24 106.958 1018.18 108.268C1011.61 108.855 1003.54 114.839 998.798 122.742C994.061 130.645 993.384 137.329 993.384 137.329Z" fill="white"/>
<path fill-rule="evenodd" clip-rule="evenodd" d="M993.384 137.329H1011.21C1011.21 137.329 1007.8 121.771 1019.08 115.471C1021.54 114.274 1029.37 109.803 1042.18 119.287C1042.59 118.948 1042.97 118.677 1042.97 118.677C1042.97 118.677 1031.24 106.958 1018.18 108.268C1011.61 108.855 1003.54 114.839 998.798 122.742C994.061 130.645 993.384 137.329 993.384 137.329Z" fill="white"/>
<path fill-rule="evenodd" clip-rule="evenodd" d="M993.384 137.329H1011.21C1011.21 137.329 1007.8 121.771 1019.08 115.471C1021.54 114.274 1029.37 109.803 1042.18 119.287C1042.59 118.948 1042.97 118.677 1042.97 118.677C1042.97 118.677 1031.24 106.958 1018.18 108.268C1011.59 108.855 1003.51 114.839 998.776 122.742C994.038 130.645 993.384 137.329 993.384 137.329ZM1030.52 109.532L1030.61 108.019C1030.4 107.906 1029.84 107.635 1028.42 107.229L1028.33 108.719C1029.07 108.968 1029.79 109.239 1030.52 109.532Z" fill="white"/>
<path fill-rule="evenodd" clip-rule="evenodd" d="M1028.37 114.319L1028.28 115.742C1029.03 115.765 1029.77 115.855 1030.52 116.013L1030.61 114.613C1029.84 114.455 1029.1 114.365 1028.37 114.319ZM1020.03 107.274H1020.25L1019.8 105.897C1019.1 105.897 1018.38 105.942 1017.64 106.032L1018.06 107.365C1018.72 107.297 1019.37 107.274 1020.03 107.274ZM1021.11 115.584L1021.63 117.142C1022.28 116.826 1022.94 116.555 1023.59 116.352L1023.09 114.861C1022.33 115.087 1021.67 115.335 1021.11 115.584ZM1010.87 109.645L1009.85 108.087C1009.29 108.381 1008.7 108.697 1008.09 109.058L1009.13 110.639C1009.72 110.277 1010.28 109.939 1010.87 109.645ZM1015.49 119.806L1016.58 121.432C1016.96 120.868 1017.41 120.348 1017.91 119.829L1016.89 118.294C1016.37 118.768 1015.9 119.287 1015.49 119.806ZM1012.22 127.077L1014.05 128.523C1014.14 127.642 1014.3 126.761 1014.52 125.881L1012.9 124.594C1012.6 125.429 1012.4 126.264 1012.22 127.077ZM1002.34 116.352L1000.74 114.952C1000.15 115.516 999.588 116.081 999.069 116.645L1000.81 118.135C1001.28 117.526 1001.8 116.916 1002.34 116.352ZM995.527 126.445L992.933 125.497C992.504 126.468 992.03 127.597 991.805 128.206L994.399 129.155C994.692 128.387 995.166 127.281 995.527 126.445ZM1011.88 132.813C1011.93 134.01 1012.04 134.981 1012.15 135.658L1014.86 136.629C1014.66 135.748 1014.45 134.755 1014.32 133.694L1011.88 132.813Z" fill="white"/>
<g clip-path="url(#clip7_59_3)">
<mask id="mask1_59_3" style="mask-type:luminance" maskUnits="userSpaceOnUse" x="1002" y="455" width="32" height="32">
<path d="M1002 455.039H1033.96V487H1002V455.039Z" fill="white"/>
</mask>
<g mask="url(#mask1_59_3)">
<path d="M1033.36 469.596L1019.4 455.643C1019.21 455.451 1018.99 455.3 1018.74 455.196C1018.49 455.093 1018.22 455.039 1017.95 455.039C1017.68 455.039 1017.41 455.093 1017.16 455.196C1016.91 455.3 1016.68 455.451 1016.49 455.643L1013.6 458.541L1017.27 462.216C1017.7 462.069 1018.17 462.046 1018.61 462.15C1019.06 462.253 1019.46 462.479 1019.79 462.802C1020.11 463.127 1020.34 463.536 1020.44 463.984C1020.54 464.432 1020.52 464.899 1020.37 465.333L1023.91 468.875C1024.34 468.724 1024.81 468.699 1025.26 468.802C1025.71 468.905 1026.12 469.132 1026.44 469.457C1026.67 469.684 1026.85 469.954 1026.97 470.251C1027.09 470.548 1027.16 470.867 1027.16 471.188C1027.16 471.51 1027.09 471.828 1026.97 472.125C1026.85 472.423 1026.67 472.693 1026.44 472.92C1025.98 473.379 1025.36 473.637 1024.71 473.637C1024.06 473.637 1023.43 473.379 1022.97 472.92C1022.63 472.578 1022.4 472.142 1022.31 471.668C1022.21 471.194 1022.26 470.703 1022.44 470.256L1019.14 466.952V475.647C1019.49 475.819 1019.79 476.072 1020.02 476.385C1020.25 476.697 1020.41 477.06 1020.47 477.444C1020.53 477.828 1020.5 478.222 1020.39 478.592C1020.27 478.962 1020.06 479.299 1019.79 479.574C1019.56 479.801 1019.29 479.982 1018.99 480.105C1018.69 480.228 1018.38 480.291 1018.05 480.291C1017.73 480.291 1017.41 480.228 1017.12 480.105C1016.82 479.982 1016.55 479.801 1016.32 479.574C1016.09 479.346 1015.91 479.076 1015.79 478.779C1015.67 478.482 1015.6 478.164 1015.6 477.842C1015.6 477.52 1015.67 477.202 1015.79 476.905C1015.91 476.608 1016.09 476.338 1016.32 476.11C1016.55 475.881 1016.82 475.699 1017.12 475.575V466.8C1016.82 466.677 1016.55 466.497 1016.33 466.268C1016.1 466.04 1015.92 465.769 1015.79 465.471C1015.67 465.172 1015.61 464.852 1015.61 464.529C1015.61 464.206 1015.67 463.887 1015.79 463.588L1012.17 459.964L1002.6 469.531C1002.22 469.917 1002 470.441 1002 470.987C1002 471.533 1002.22 472.056 1002.6 472.443L1016.56 486.398C1016.94 486.784 1017.47 487 1018.01 487C1018.56 487 1019.08 486.784 1019.47 486.398L1033.36 472.508C1033.74 472.122 1033.96 471.598 1033.96 471.052C1033.96 470.506 1033.74 469.983 1033.36 469.596Z" fill="white"/>
</g>
</g>
</g>
<rect y="2" width="1280" height="712" fill="url(#paint0_radial_59_3)"/>
<defs>
<filter id="filter0_b_59_3" x="-234" y="-234" width="1748" height="1182" filterUnits="userSpaceOnUse" color-interpolation-filters="sRGB">
<feFlood flood-opacity="0" result="BackgroundImageFix"/>
<feGaussianBlur in="BackgroundImageFix" stdDeviation="117"/>
<feComposite in2="SourceAlpha" operator="in" result="effect1_backgroundBlur_59_3"/>
<feBlend mode="normal" in="SourceGraphic" in2="effect1_backgroundBlur_59_3" result="shape"/>
</filter>
<filter id="filter1_d_59_3" x="610.647" y="62.3986" width="48.6861" height="40.852" filterUnits="userSpaceOnUse" color-interpolation-filters="sRGB">
<feFlood flood-opacity="0" result="BackgroundImageFix"/>
<feColorMatrix in="SourceAlpha" type="matrix" values="0 0 0 0 0 0 0 0 0 0 0 0 0 0 0 0 0 0 127 0" result="hardAlpha"/>
<feOffset/>
<feGaussianBlur stdDeviation="4.16667"/>
<feColorMatrix type="matrix" values="0 0 0 0 0 0 0 0 0 0 0 0 0 0 0 0 0 0 0.25 0"/>
<feBlend mode="overlay" in2="BackgroundImageFix" result="effect1_dropShadow_59_3"/>
<feBlend mode="normal" in="SourceGraphic" in2="effect1_dropShadow_59_3" result="shape"/>
</filter>
<filter id="filter2_d_59_3" x="632.667" y="54.7491" width="26.6667" height="48.5018" filterUnits="userSpaceOnUse" color-interpolation-filters="sRGB">
<feFlood flood-opacity="0" result="BackgroundImageFix"/>
<feColorMatrix in="SourceAlpha" type="matrix" values="0 0 0 0 0 0 0 0 0 0 0 0 0 0 0 0 0 0 127 0" result="hardAlpha"/>
<feOffset/>
<feGaussianBlur stdDeviation="4.16667"/>
<feColorMatrix type="matrix" values="0 0 0 0 0 0 0 0 0 0 0 0 0 0 0 0 0 0 0.25 0"/>
<feBlend mode="overlay" in2="BackgroundImageFix" result="effect1_dropShadow_59_3"/>
<feBlend mode="normal" in="SourceGraphic" in2="effect1_dropShadow_59_3" result="shape"/>
</filter>
<radialGradient id="paint0_radial_59_3" cx="0" cy="0" r="1" gradientUnits="userSpaceOnUse" gradientTransform="translate(640 358) rotate(90) scale(356 640)">
<stop stop-color="#436B59" stop-opacity="0.62"/>
<stop offset="1" stop-color="#131414" stop-opacity="0.26"/>
</radialGradient>
<clipPath id="clip0_59_3">
<rect width="28.4444" height="32" fill="white" transform="translate(221 369)"/>
</clipPath>
<clipPath id="clip1_59_3">
<rect width="36.9778" height="32" fill="white" transform="translate(289 222)"/>
</clipPath>
<clipPath id="clip2_59_3">
<rect width="32" height="32" fill="white" transform="translate(79 120)"/>
</clipPath>
<clipPath id="clip3_59_3">
<rect width="32" height="32" fill="white" transform="translate(619 63)"/>
</clipPath>
<clipPath id="clip4_59_3">
<rect width="32.0334" height="32" fill="white" transform="translate(1164 375)"/>
</clipPath>
<clipPath id="clip5_59_3">
<rect width="36.3636" height="32" fill="white" transform="translate(882 199)"/>
</clipPath>
<clipPath id="clip6_59_3">
<rect width="32" height="32" fill="white" transform="translate(391 471)"/>
</clipPath>
<clipPath id="clip7_59_3">
<rect width="32" height="32" fill="white" transform="translate(1002 455)"/>
</clipPath>
</defs>
</svg>
