<svg width="377" height="377" viewBox="0 0 377 377" fill="none" xmlns="http://www.w3.org/2000/svg">
<rect width="376.609" height="376.609" rx="30" fill="#C3D5CC"/>
<path fill-rule="evenodd" clip-rule="evenodd" d="M133.072 151.612C134.268 152.081 135.633 152.051 136.84 151.467L152.481 143.902C154.124 143.107 155.17 141.435 155.17 139.6V88.3051C155.17 86.4708 154.124 84.7988 152.481 84.0039L136.84 76.4387C135.255 75.6721 133.4 75.8599 132.009 76.8764C131.811 77.0216 131.621 77.1837 131.444 77.3624L101.502 104.821L88.4595 94.8694C87.2455 93.9429 85.5472 94.0189 84.4196 95.0499L80.2366 98.8747C78.8573 100.136 78.8557 102.317 80.2332 103.58L91.5438 113.953L80.2332 124.325C78.8557 125.588 78.8573 127.769 80.2366 129.03L84.4196 132.855C85.5472 133.886 87.2455 133.962 88.4595 133.036L101.502 123.084L131.444 150.543C131.917 151.019 132.474 151.378 133.072 151.612ZM136.189 96.6175L113.47 113.953L136.189 131.288V96.6175Z" fill="#333836"/>
<path d="M73.4854 266.195C73.2158 266.195 73.1484 266.06 73.2832 265.858L74.6987 264.038C74.8336 263.836 75.1706 263.701 75.4402 263.701H99.504C99.7736 263.701 99.841 263.904 99.7062 264.106L98.5603 265.858C98.4255 266.06 98.0885 266.263 97.8863 266.263L73.4854 266.195Z" fill="#333836"/>
<path d="M63.3073 272.397C63.0376 272.397 62.9702 272.262 63.105 272.06L64.5206 270.24C64.6554 270.038 64.9924 269.903 65.262 269.903H95.9989C96.2686 269.903 96.4034 270.105 96.336 270.307L95.7967 271.925C95.7293 272.194 95.4597 272.329 95.1901 272.329L63.3073 272.397Z" fill="#333836"/>
<path d="M79.6194 278.598C79.3497 278.598 79.2823 278.396 79.4171 278.193L80.3608 276.508C80.4956 276.306 80.7652 276.104 81.0349 276.104H94.516C94.7856 276.104 94.9204 276.306 94.9204 276.576L94.7856 278.193C94.7856 278.463 94.516 278.665 94.3138 278.665L79.6194 278.598Z" fill="#333836"/>
<path d="M149.586 264.982C145.34 266.061 142.441 266.869 138.262 267.948C137.251 268.218 137.184 268.285 136.307 267.274C135.296 266.128 134.555 265.387 133.139 264.712C128.893 262.623 124.781 263.23 120.939 265.724C116.355 268.689 113.996 273.071 114.064 278.531C114.131 283.923 117.838 288.372 123.163 289.113C127.747 289.72 131.589 288.102 134.622 284.665C135.229 283.923 135.768 283.114 136.442 282.171C134.016 282.171 130.982 282.171 123.433 282.171C122.017 282.171 121.68 281.294 122.152 280.148C123.029 278.059 124.646 274.554 125.59 272.801C125.792 272.397 126.264 271.723 127.275 271.723C130.713 271.723 143.385 271.723 151.811 271.723C151.676 273.543 151.676 275.363 151.406 277.183C150.665 282.036 148.845 286.484 145.879 290.394C141.026 296.798 134.69 300.774 126.668 301.853C120.063 302.729 113.929 301.448 108.536 297.404C103.548 293.629 100.717 288.641 99.9759 282.44C99.0996 275.093 101.257 268.487 105.705 262.69C110.491 256.422 116.827 252.445 124.579 251.029C130.915 249.883 136.982 250.625 142.441 254.332C146.014 256.691 148.575 259.927 150.26 263.836C150.665 264.443 150.395 264.78 149.586 264.982Z" fill="#333836"/>
<path d="M171.898 302.257C165.764 302.122 160.169 300.37 155.451 296.326C151.474 292.888 148.98 288.507 148.171 283.316C146.958 275.699 149.047 268.959 153.631 262.96C158.551 256.489 164.483 253.119 172.504 251.703C179.38 250.49 185.851 251.164 191.715 255.141C197.04 258.781 200.343 263.701 201.219 270.172C202.365 279.272 199.736 286.687 193.467 293.023C189.019 297.539 183.559 300.37 177.29 301.651C175.47 301.988 173.65 302.055 171.898 302.257ZM187.94 275.025C187.873 274.149 187.873 273.475 187.738 272.801C186.525 266.128 180.391 262.353 173.987 263.836C167.718 265.252 163.674 269.229 162.191 275.565C160.978 280.822 163.539 286.147 168.393 288.304C172.1 289.922 175.807 289.72 179.38 287.9C184.705 285.136 187.603 280.822 187.94 275.025Z" fill="#333836"/>
<path d="M270.96 88.8996C268.85 88.9094 266.836 89.0893 265.063 89.403C259.841 90.3255 258.893 92.2563 258.893 95.8172V100.52H271.233V102.088H258.893H254.262C250.676 102.088 247.536 104.243 246.554 108.344C245.421 113.044 245.371 115.977 246.554 120.885C247.431 124.538 249.526 127.141 253.112 127.141H257.354V121.503C257.354 117.43 260.878 113.838 265.063 113.838H277.388C280.819 113.838 283.558 111.013 283.558 107.567V95.8172C283.558 92.4731 280.737 89.9611 277.388 89.403C275.268 89.0501 273.069 88.8898 270.96 88.8996ZM264.286 92.682C265.561 92.682 266.602 93.7399 266.602 95.0406C266.602 96.3367 265.561 97.3848 264.286 97.3848C263.007 97.3848 261.971 96.3367 261.971 95.0406C261.971 93.7399 263.007 92.682 264.286 92.682Z" fill="#333836"/>
<path d="M285.097 102.088V107.567C285.097 111.815 281.495 115.391 277.388 115.391H265.063C261.687 115.391 258.893 118.28 258.893 121.661V133.411C258.893 136.755 261.801 138.722 265.063 139.682C268.969 140.83 272.715 141.038 277.388 139.682C280.495 138.782 283.558 136.972 283.558 133.411V128.708H271.233V127.141H283.558H289.728C293.314 127.141 294.65 124.639 295.897 120.885C297.186 117.019 297.131 113.302 295.897 108.344C295.011 104.774 293.318 102.088 289.728 102.088H285.097ZM278.165 131.843C279.444 131.843 280.48 132.892 280.48 134.188C280.48 135.488 279.444 136.546 278.165 136.546C276.89 136.546 275.849 135.488 275.849 134.188C275.849 132.892 276.89 131.843 278.165 131.843Z" fill="#333836"/>
<g clip-path="url(#clip0_11_155)">
<path d="M268.608 281.577C271.501 281.577 273.847 279.257 273.847 276.396C273.847 273.534 271.501 271.214 268.608 271.214C265.715 271.214 263.369 273.534 263.369 276.396C263.369 279.257 265.715 281.577 268.608 281.577Z" fill="#333836"/>
<path d="M268.608 287.011C284.133 287.011 296.718 282.259 296.718 276.396C296.718 270.533 284.133 265.78 268.608 265.78C253.083 265.78 240.497 270.533 240.497 276.396C240.497 282.259 253.083 287.011 268.608 287.011Z" stroke="#333836"/>
<path d="M259.313 281.704C267.075 295.002 277.53 303.406 282.663 300.474C287.797 297.543 285.665 284.386 277.903 271.088C270.141 257.79 259.686 249.386 254.553 252.317C249.419 255.249 251.55 268.405 259.313 281.704Z" stroke="#333836"/>
<path d="M259.313 271.088C251.55 284.386 249.419 297.543 254.553 300.474C259.686 303.406 270.141 295.002 277.903 281.704C285.665 268.405 287.797 255.249 282.663 252.317C277.53 249.386 267.075 257.79 259.313 271.088Z" stroke="#333836"/>
</g>
<defs>
<clipPath id="clip0_11_155">
<rect width="58.7763" height="51.7232" fill="white" transform="translate(239.22 250.534)"/>
</clipPath>
</defs>
</svg>
