<svg width="127" height="127" viewBox="0 0 127 127" fill="none" xmlns="http://www.w3.org/2000/svg">
<path d="M18.5847 73.5614C28.0537 73.5614 35.7299 65.8852 35.7299 56.4162C35.7299 46.9472 28.0537 39.271 18.5847 39.271C9.11564 39.271 1.43947 46.9472 1.43947 56.4162C1.43947 65.8852 9.11564 73.5614 18.5847 73.5614Z" fill="#E95420"/>
<path d="M89.9948 35.9657C99.4638 35.9657 107.14 28.2895 107.14 18.8205C107.14 9.35146 99.4638 1.67529 89.9948 1.67529C80.5258 1.67529 72.8496 9.35146 72.8496 18.8205C72.8496 28.2895 80.5258 35.9657 89.9948 35.9657Z" fill="#E95420"/>
<path d="M57.2559 100.55C44.9022 97.9035 34.5825 90.0154 28.7805 78.8286C24.2107 80.9082 19.0671 81.5406 14.1191 80.6279C21.1402 97.8709 36.0298 110.394 54.3093 114.312C58.3185 115.173 62.406 115.59 66.4869 115.564C63.3382 111.424 61.5846 106.43 61.4673 101.228C60.0526 101.072 58.6445 100.844 57.2624 100.544L57.2559 100.55Z" fill="#E95420"/>
<path d="M86.1355 117.787C95.6045 117.787 103.281 110.111 103.281 100.642C103.281 91.1728 95.6045 83.4966 86.1355 83.4966C76.6664 83.4966 68.9903 91.1728 68.9903 100.642C68.9903 110.111 76.6664 117.787 86.1355 117.787Z" fill="#E95420"/>
<path d="M109.995 94.3436C115.328 87.6224 119.083 79.6756 120.889 71.2334C124.044 56.5068 121.097 41.0565 112.805 28.5269C110.83 33.1815 107.479 37.1125 103.163 39.8179C107.792 48.5405 109.2 58.6059 107.127 68.2868C106.11 73.0261 104.317 77.4917 101.794 81.5727C105.83 84.8844 108.678 89.3369 110.002 94.3501L109.995 94.3436Z" fill="#E95420"/>
<path d="M17.2613 31.8263C17.6981 31.8002 18.1349 31.7937 18.5651 31.7937C20.2992 31.7937 22.0268 31.9762 23.7413 32.3478C26.538 32.9475 29.1652 34.0036 31.5707 35.503C39.2893 24.401 51.7473 17.7385 65.2418 17.4908C65.3135 16.1935 65.4895 14.9027 65.7568 13.6315C66.5456 9.96123 68.1493 6.52568 70.444 3.58557C48.8789 1.87757 27.9265 13.0057 17.2548 31.8328L17.2613 31.8263Z" fill="#E95420"/>
</svg>
