<svg width="137" height="127" viewBox="0 0 137 127" fill="none" xmlns="http://www.w3.org/2000/svg">
<g clip-path="url(#clip0_13_539)">
<path d="M68.2882 3.00487C53.2429 10.4572 32.0747 34.4335 67.7647 70.7217C68.672 64.4716 70.1029 57.1993 71.6789 49.987C75.632 31.8955 80.4978 14.1833 80.3019 13.9398C77.3171 10.2263 73.3697 6.55913 68.2882 3.00487Z" fill="url(#paint0_linear_13_539)"/>
<path fill-rule="evenodd" clip-rule="evenodd" d="M80.303 13.9463C80.4549 14.1353 80.7513 14.5136 80.7513 14.5136C80.7513 14.5136 72.3736 58.4269 67.7667 70.7253C66.5899 69.2732 64.8514 67.2787 63.1406 63.9291C60.7352 59.2195 56.47 46.5931 60.8857 33.4041C65.0956 20.8305 73.2315 15.8805 80.303 13.9463Z" fill="#FFFB64"/>
<path fill-rule="evenodd" clip-rule="evenodd" d="M80.7506 14.5146C97.6172 36.2355 81.9183 59.4168 67.7665 70.7251C61.6364 64.1456 56.229 49.3242 61.558 33.6557C65.8281 21.1009 73.7447 16.6134 80.7506 14.5146Z" fill="url(#paint1_linear_13_539)"/>
<path d="M129.978 44.3485C117.232 33.4535 86.9491 23.4806 67.7861 70.7502C73.8645 69.1044 81.0848 67.5348 88.3072 66.1227C106.424 62.5803 124.553 60.0289 124.699 59.7519C126.923 55.5292 128.726 50.4386 129.978 44.3485Z" fill="url(#paint2_linear_13_539)"/>
<path fill-rule="evenodd" clip-rule="evenodd" d="M124.706 59.7501C124.593 59.9651 124.363 60.3882 124.363 60.3882C124.363 60.3882 80.8626 70.1086 67.7896 70.7491C68.6555 69.0888 69.7967 66.6959 72.1894 63.7904C75.5536 59.7054 85.4328 50.7643 99.2459 49.5942C112.415 48.4788 120.15 54.0059 124.706 59.7501Z" fill="#FFFB64"/>
<path fill-rule="evenodd" clip-rule="evenodd" d="M124.364 60.3888C111.122 84.5466 83.7162 79.293 67.7898 70.7499C71.399 62.4919 82.8383 51.627 99.2817 50.3134C112.458 49.2609 119.684 54.7699 124.364 60.3888Z" fill="url(#paint3_linear_13_539)"/>
<path d="M22.0139 120.499C38.1239 125.145 69.8332 121.696 67.7909 70.7272C62.9312 74.7408 56.9996 79.1573 51.0009 83.4314C35.9539 94.1528 20.4869 103.977 20.4684 104.289C20.1842 109.054 20.6423 114.435 22.0139 120.499Z" fill="url(#paint4_linear_13_539)"/>
<path fill-rule="evenodd" clip-rule="evenodd" d="M20.4687 104.29C20.4832 104.048 20.5178 103.567 20.5178 103.567C20.5178 103.567 56.1436 76.7199 67.7911 70.7281C67.6871 72.5979 67.6346 75.2487 66.6532 78.8841C65.2733 83.9952 59.9607 96.2231 47.8573 103.003C36.3187 109.467 26.9897 107.635 20.4687 104.29Z" fill="#FFFB64"/>
<path fill-rule="evenodd" clip-rule="evenodd" d="M20.5179 103.567C22.6169 76.094 49.755 69.5389 67.7911 70.7278C67.9096 79.7395 61.9693 94.3642 47.5289 102.363C35.958 108.772 27.101 106.746 20.5179 103.567Z" fill="url(#paint5_linear_13_539)"/>
<path d="M112.424 121.528C118.689 105.925 118.535 73.9204 67.7963 70.7276C71.2748 75.9902 75.0425 82.3642 78.662 88.7903C87.7416 104.91 95.8883 121.356 96.1963 121.407C100.891 122.18 106.272 122.275 112.424 121.528Z" fill="url(#paint6_linear_13_539)"/>
<path fill-rule="evenodd" clip-rule="evenodd" d="M96.1957 121.406C95.9568 121.366 95.4843 121.282 95.4843 121.282C95.4843 121.282 72.5369 82.9676 67.7961 70.7269C69.6391 71.0226 72.2616 71.3471 75.7644 72.6998C80.6892 74.6017 92.2643 81.1594 97.7398 93.936C102.96 106.116 100.183 115.24 96.1957 121.406Z" fill="#FFFB64"/>
<path fill-rule="evenodd" clip-rule="evenodd" d="M95.4843 121.282C68.4651 116.367 64.7608 88.6071 67.7963 70.7268C76.7422 71.5334 90.6286 78.9636 97.0715 94.1979C102.234 106.405 99.3137 115.037 95.4843 121.282Z" fill="url(#paint7_linear_13_539)"/>
<path d="M5.97291 43.4556C6.84314 60.2315 20.4299 89.1736 67.8165 70.7345C62.4487 67.4273 56.3516 63.2344 50.3669 58.9319C35.3547 48.1396 21.0516 36.6585 20.7508 36.7421C16.1659 38.0156 11.2423 40.1921 5.97291 43.4556Z" fill="url(#paint8_linear_13_539)"/>
<path fill-rule="evenodd" clip-rule="evenodd" d="M20.7477 36.7309C20.981 36.666 21.4451 36.5434 21.4451 36.5434C21.4451 36.5434 58.3708 61.6257 67.8167 70.7283C66.0198 71.2352 63.5034 72.0438 59.756 72.2906C54.4872 72.6375 41.2264 71.5605 30.8885 62.2811C21.033 53.4346 19.7193 43.9966 20.7477 36.7309Z" fill="#FFFB64"/>
<path fill-rule="evenodd" clip-rule="evenodd" d="M21.4448 36.5406C48.033 29.6335 63.0598 53.2415 67.818 70.7274C59.3596 73.7583 43.634 72.8622 31.3849 61.7611C21.5699 52.8658 20.5931 43.8119 21.4448 36.5406Z" fill="url(#paint9_linear_13_539)"/>
</g>
<defs>
<linearGradient id="paint0_linear_13_539" x1="68.3685" y1="3.00538" x2="67.9468" y2="70.7227" gradientUnits="userSpaceOnUse">
<stop stop-color="#FFFB64"/>
<stop offset="1" stop-color="#FFBF48"/>
</linearGradient>
<linearGradient id="paint1_linear_13_539" x1="68.3702" y1="3.0137" x2="67.9484" y2="70.7262" gradientUnits="userSpaceOnUse">
<stop stop-color="#FDE14E"/>
<stop offset="1" stop-color="#F9A731"/>
</linearGradient>
<linearGradient id="paint2_linear_13_539" x1="130.009" y1="44.4227" x2="67.7243" y2="70.603" gradientUnits="userSpaceOnUse">
<stop stop-color="#FFFB64"/>
<stop offset="1" stop-color="#FFBF48"/>
</linearGradient>
<linearGradient id="paint3_linear_13_539" x1="130.018" y1="44.4203" x2="67.7279" y2="70.6027" gradientUnits="userSpaceOnUse">
<stop stop-color="#FDE14E"/>
<stop offset="1" stop-color="#F9A731"/>
</linearGradient>
<linearGradient id="paint4_linear_13_539" x1="21.9549" y1="120.444" x2="67.8946" y2="70.8233" gradientUnits="userSpaceOnUse">
<stop stop-color="#FFFB64"/>
<stop offset="1" stop-color="#FFBF48"/>
</linearGradient>
<linearGradient id="paint5_linear_13_539" x1="21.9553" y1="120.444" x2="67.8948" y2="70.824" gradientUnits="userSpaceOnUse">
<stop stop-color="#FDE14E"/>
<stop offset="1" stop-color="#F9A731"/>
</linearGradient>
<linearGradient id="paint6_linear_13_539" x1="112.364" y1="121.581" x2="67.558" y2="70.9384" gradientUnits="userSpaceOnUse">
<stop stop-color="#FFFB64"/>
<stop offset="1" stop-color="#FFBF48"/>
</linearGradient>
<linearGradient id="paint7_linear_13_539" x1="112.363" y1="121.579" x2="67.5583" y2="70.9375" gradientUnits="userSpaceOnUse">
<stop stop-color="#FDE14E"/>
<stop offset="1" stop-color="#F9A731"/>
</linearGradient>
<linearGradient id="paint8_linear_13_539" x1="6.0052" y1="43.3819" x2="67.9117" y2="70.5171" gradientUnits="userSpaceOnUse">
<stop stop-color="#FFFB64"/>
<stop offset="1" stop-color="#FFBF48"/>
</linearGradient>
<linearGradient id="paint9_linear_13_539" x1="6.00014" y1="43.3692" x2="67.9151" y2="70.5056" gradientUnits="userSpaceOnUse">
<stop stop-color="#FDE14E"/>
<stop offset="1" stop-color="#F9A731"/>
</linearGradient>
<clipPath id="clip0_13_539">
<rect width="124" height="119" fill="white" transform="translate(6 3)"/>
</clipPath>
</defs>
</svg>
