<svg width="861" height="733" viewBox="0 0 861 733" fill="none" xmlns="http://www.w3.org/2000/svg">
<g filter="url(#filter0_d_11_87)">
<rect x="314" y="250" width="233" height="233" rx="30" fill="#1FFF91"/>
</g>
<path d="M449.37 338.223C451.001 336.592 453.645 336.592 455.275 338.223L499.287 382.235C500.918 383.865 500.918 386.509 499.287 388.14C497.656 389.77 495.013 389.77 493.382 388.14L449.37 344.128C447.74 342.497 447.74 339.854 449.37 338.223Z" fill="#333836"/>
<path d="M449.41 388.178C447.779 386.547 447.779 383.904 449.41 382.273L493.421 338.261C495.052 336.631 497.696 336.631 499.327 338.261C500.957 339.892 500.957 342.536 499.327 344.166L455.315 388.178C453.684 389.809 451.041 389.809 449.41 388.178Z" fill="#333836"/>
<path d="M449.695 387.894C448.221 386.42 448.221 384.031 449.695 382.558L493.707 338.546C495.18 337.073 497.569 337.073 499.042 338.546C500.516 340.02 500.516 342.409 499.042 343.882L455.03 387.894C453.557 389.367 451.168 389.367 449.695 387.894Z" stroke="#333836"/>
<path d="M376.139 382.343C372.889 382.343 369.958 381.536 367.348 379.923C364.738 378.31 362.694 376.11 361.216 373.324C359.739 370.538 359 367.409 359 363.939C359 360.419 359.739 357.267 361.216 354.48C362.694 351.694 364.738 349.494 367.348 347.881C369.958 346.268 372.889 345.462 376.139 345.462C378.7 345.462 380.99 345.975 383.01 347.001C385.029 348.028 386.63 349.47 387.812 351.327C389.043 353.136 389.708 355.189 389.806 357.486V370.244C389.708 372.591 389.043 374.668 387.812 376.477C386.63 378.286 385.029 379.727 383.01 380.803C380.99 381.829 378.7 382.343 376.139 382.343ZM377.912 373.471C380.621 373.471 382.813 372.591 384.487 370.831C386.162 369.022 386.999 366.701 386.999 363.865C386.999 362.008 386.605 360.37 385.817 358.953C385.078 357.486 384.019 356.362 382.64 355.58C381.311 354.749 379.735 354.334 377.912 354.334C376.139 354.334 374.563 354.749 373.184 355.58C371.854 356.362 370.796 357.486 370.008 358.953C369.269 360.37 368.899 362.008 368.899 363.865C368.899 365.772 369.269 367.458 370.008 368.925C370.796 370.342 371.854 371.467 373.184 372.298C374.563 373.08 376.139 373.471 377.912 373.471ZM386.482 381.609V372.078L388.033 363.426L386.482 354.92V346.195H396.086V381.609H386.482Z" fill="#333836"/>
<path d="M424.444 382.341C421.883 382.341 419.568 381.828 417.5 380.801C415.431 379.726 413.781 378.284 412.55 376.475C411.319 374.667 410.654 372.589 410.555 370.243V357.706C410.654 355.359 411.319 353.282 412.55 351.474C413.831 349.616 415.48 348.15 417.5 347.074C419.568 345.999 421.883 345.461 424.444 345.461C427.743 345.461 430.698 346.268 433.309 347.881C435.919 349.494 437.963 351.693 439.44 354.48C440.967 357.266 441.73 360.419 441.73 363.938C441.73 367.408 440.967 370.537 439.44 373.323C437.963 376.109 435.919 378.308 433.309 379.921C430.698 381.534 427.743 382.341 424.444 382.341ZM422.745 373.469C424.518 373.469 426.094 373.078 427.473 372.296C428.851 371.465 429.91 370.341 430.649 368.924C431.437 367.457 431.831 365.771 431.831 363.865C431.831 362.007 431.437 360.37 430.649 358.952C429.91 357.486 428.851 356.361 427.473 355.579C426.094 354.748 424.518 354.333 422.745 354.333C421.021 354.333 419.47 354.748 418.091 355.579C416.712 356.361 415.628 357.486 414.84 358.952C414.101 360.37 413.732 362.007 413.732 363.865C413.732 365.771 414.101 367.457 414.84 368.924C415.628 370.341 416.687 371.465 418.017 372.296C419.396 373.078 420.972 373.469 422.745 373.469ZM404.646 396.418V346.195H414.323V355.506L412.698 364.084L414.249 372.663V396.418H404.646Z" fill="#333836"/>
<rect y="250" width="233" height="233" rx="30" fill="#333836"/>
<path d="M62.44 370.244L52.648 354.692H58.3L65.896 367.148H62.656L70.252 354.692H75.832L65.932 370.244H62.44ZM61.792 380V367.616H66.724V380H61.792Z" fill="white"/>
<path d="M81.4905 380.36C79.7385 380.36 78.1545 379.964 76.7385 379.172C75.3465 378.356 74.2305 377.264 73.3905 375.896C72.5745 374.504 72.1665 372.956 72.1665 371.252C72.1665 369.548 72.5745 368.024 73.3905 366.68C74.2065 365.312 75.3225 364.232 76.7385 363.44C78.1545 362.624 79.7265 362.216 81.4545 362.216C83.2305 362.216 84.8145 362.624 86.2065 363.44C87.6225 364.232 88.7385 365.312 89.5545 366.68C90.3705 368.024 90.7785 369.548 90.7785 371.252C90.7785 372.956 90.3705 374.504 89.5545 375.896C88.7385 377.264 87.6225 378.356 86.2065 379.172C84.8145 379.964 83.2425 380.36 81.4905 380.36ZM81.4545 375.968C82.3425 375.968 83.1225 375.776 83.7945 375.392C84.4905 374.984 85.0185 374.432 85.3785 373.736C85.7625 373.016 85.9545 372.2 85.9545 371.288C85.9545 370.376 85.7625 369.572 85.3785 368.876C84.9945 368.18 84.4665 367.64 83.7945 367.256C83.1225 366.848 82.3425 366.644 81.4545 366.644C80.5905 366.644 79.8225 366.848 79.1505 367.256C78.4785 367.64 77.9505 368.18 77.5665 368.876C77.1825 369.572 76.9905 370.376 76.9905 371.288C76.9905 372.2 77.1825 373.016 77.5665 373.736C77.9505 374.432 78.4785 374.984 79.1505 375.392C79.8225 375.776 80.5905 375.968 81.4545 375.968Z" fill="white"/>
<path d="M101.231 380.36C99.6946 380.36 98.3266 380.036 97.1266 379.388C95.9506 378.74 95.0266 377.84 94.3546 376.688C93.6826 375.536 93.3466 374.204 93.3466 372.692V362.612H98.0986V372.584C98.0986 373.304 98.2186 373.928 98.4586 374.456C98.6986 374.96 99.0586 375.344 99.5386 375.608C100.019 375.872 100.583 376.004 101.231 376.004C102.215 376.004 102.983 375.704 103.535 375.104C104.087 374.504 104.363 373.664 104.363 372.584V362.612H109.079V372.692C109.079 374.228 108.743 375.572 108.071 376.724C107.423 377.876 106.499 378.776 105.299 379.424C104.123 380.048 102.767 380.36 101.231 380.36Z" fill="white"/>
<path d="M112.834 380V362.612H117.55V380H112.834ZM117.55 370.388L115.714 369.164C115.93 367.028 116.554 365.348 117.586 364.124C118.618 362.876 120.106 362.252 122.05 362.252C122.89 362.252 123.646 362.396 124.318 362.684C124.99 362.948 125.602 363.392 126.154 364.016L123.202 367.4C122.938 367.112 122.614 366.896 122.23 366.752C121.87 366.608 121.45 366.536 120.97 366.536C119.962 366.536 119.134 366.86 118.486 367.508C117.862 368.132 117.55 369.092 117.55 370.388Z" fill="white"/>
<path d="M139.579 370.604V366.608H145.447C146.215 366.608 146.911 366.452 147.535 366.14C148.159 365.828 148.651 365.384 149.011 364.808C149.371 364.208 149.551 363.488 149.551 362.648C149.551 361.832 149.371 361.124 149.011 360.524C148.651 359.924 148.159 359.468 147.535 359.156C146.911 358.844 146.215 358.688 145.447 358.688H139.579V354.692H145.951C147.559 354.692 148.999 355.016 150.271 355.664C151.567 356.312 152.587 357.236 153.331 358.436C154.075 359.612 154.447 361.016 154.447 362.648C154.447 364.28 154.075 365.696 153.331 366.896C152.587 368.072 151.567 368.984 150.271 369.632C148.999 370.28 147.559 370.604 145.951 370.604H139.579ZM135.979 380V354.692H140.875V380H135.979Z" fill="white"/>
<path d="M169.898 380.36C168.05 380.36 166.334 380.036 164.75 379.388C163.166 378.716 161.774 377.792 160.574 376.616C159.398 375.416 158.486 374.024 157.838 372.44C157.214 370.856 156.902 369.152 156.902 367.328C156.902 365.504 157.214 363.8 157.838 362.216C158.486 360.632 159.398 359.252 160.574 358.076C161.774 356.9 163.154 355.976 164.714 355.304C166.298 354.632 168.026 354.296 169.898 354.296C171.914 354.296 173.69 354.632 175.226 355.304C176.762 355.952 178.118 356.852 179.294 358.004L175.982 361.316C175.286 360.548 174.434 359.948 173.426 359.516C172.418 359.084 171.242 358.868 169.898 358.868C168.722 358.868 167.642 359.072 166.658 359.48C165.698 359.864 164.858 360.44 164.138 361.208C163.418 361.952 162.866 362.852 162.482 363.908C162.098 364.94 161.906 366.08 161.906 367.328C161.906 368.6 162.098 369.752 162.482 370.784C162.866 371.816 163.418 372.716 164.138 373.484C164.858 374.228 165.698 374.804 166.658 375.212C167.642 375.62 168.722 375.824 169.898 375.824C171.314 375.824 172.526 375.608 173.534 375.176C174.566 374.744 175.43 374.132 176.126 373.34L179.438 376.652C178.262 377.828 176.894 378.74 175.334 379.388C173.774 380.036 171.962 380.36 169.898 380.36Z" fill="white"/>
<rect x="628" y="250" width="233" height="233" rx="30" fill="#C3D5CC"/>
<path fill-rule="evenodd" clip-rule="evenodd" d="M710.329 343.799C711.069 344.089 711.913 344.07 712.66 343.709L722.337 339.029C723.353 338.537 724 337.503 724 336.368V304.632C724 303.498 723.353 302.463 722.337 301.971L712.66 297.291C711.68 296.817 710.532 296.933 709.671 297.562C709.548 297.652 709.431 297.752 709.321 297.863L690.797 314.85L682.728 308.694C681.977 308.121 680.926 308.168 680.229 308.805L677.641 311.172C676.787 311.952 676.786 313.301 677.639 314.083L684.636 320.5L677.639 326.917C676.786 327.699 676.787 329.048 677.641 329.828L680.229 332.195C680.926 332.833 681.977 332.88 682.728 332.306L690.797 326.15L709.321 343.138C709.614 343.432 709.959 343.654 710.329 343.799ZM712.257 309.775L698.201 320.5L712.257 331.225V309.775Z" fill="#333836"/>
<path d="M673.464 414.689C673.297 414.689 673.255 414.606 673.339 414.481L674.214 413.355C674.298 413.23 674.506 413.146 674.673 413.146H689.561C689.728 413.146 689.769 413.271 689.686 413.397L688.977 414.481C688.894 414.606 688.685 414.731 688.56 414.731L673.464 414.689Z" fill="#333836"/>
<path d="M667.167 418.526C667 418.526 666.958 418.443 667.042 418.317L667.917 417.191C668.001 417.066 668.209 416.983 668.376 416.983H687.392C687.559 416.983 687.643 417.108 687.601 417.233L687.267 418.234C687.226 418.401 687.059 418.484 686.892 418.484L667.167 418.526Z" fill="#333836"/>
<path d="M677.259 422.363C677.092 422.363 677.05 422.237 677.134 422.112L677.718 421.07C677.801 420.945 677.968 420.82 678.135 420.82H686.475C686.642 420.82 686.725 420.945 686.725 421.111L686.642 422.112C686.642 422.279 686.475 422.404 686.35 422.404L677.259 422.363Z" fill="#333836"/>
<path d="M720.546 413.939C717.919 414.606 716.125 415.106 713.54 415.774C712.914 415.94 712.873 415.982 712.33 415.357C711.705 414.648 711.246 414.189 710.37 413.772C707.743 412.479 705.199 412.854 702.822 414.397C699.987 416.232 698.527 418.943 698.569 422.321C698.61 425.657 700.904 428.409 704.198 428.868C707.034 429.243 709.411 428.243 711.288 426.116C711.663 425.657 711.997 425.157 712.414 424.573C710.913 424.573 709.036 424.573 704.365 424.573C703.49 424.573 703.281 424.031 703.573 423.322C704.115 422.029 705.116 419.86 705.7 418.776C705.825 418.526 706.117 418.109 706.742 418.109C708.869 418.109 716.709 418.109 721.922 418.109C721.839 419.235 721.839 420.361 721.672 421.487C721.213 424.489 720.087 427.242 718.252 429.66C715.25 433.622 711.33 436.083 706.367 436.75C702.28 437.292 698.485 436.5 695.149 433.998C692.063 431.662 690.312 428.576 689.853 424.74C689.311 420.194 690.645 416.107 693.398 412.521C696.358 408.642 700.278 406.182 705.074 405.306C708.994 404.597 712.747 405.056 716.125 407.35C718.336 408.809 719.92 410.811 720.963 413.23C721.213 413.605 721.046 413.814 720.546 413.939Z" fill="#333836"/>
<path d="M734.349 437C730.554 436.917 727.093 435.832 724.174 433.33C721.713 431.203 720.171 428.493 719.67 425.282C718.919 420.569 720.212 416.399 723.048 412.688C726.092 408.684 729.762 406.599 734.725 405.723C738.978 404.973 742.982 405.39 746.61 407.85C749.904 410.102 751.948 413.146 752.49 417.15C753.199 422.78 751.572 427.367 747.694 431.287C744.942 434.081 741.564 435.832 737.685 436.625C736.56 436.833 735.434 436.875 734.349 437ZM744.274 420.152C744.233 419.61 744.233 419.193 744.149 418.776C743.399 414.648 739.604 412.312 735.642 413.23C731.764 414.105 729.262 416.566 728.344 420.486C727.594 423.739 729.178 427.033 732.181 428.368C734.474 429.369 736.768 429.243 738.978 428.117C742.273 426.408 744.066 423.739 744.274 420.152Z" fill="#333836"/>
<path d="M795.637 305C794.332 305.006 793.085 305.118 791.989 305.312C788.758 305.882 788.172 307.077 788.172 309.28V312.19H795.806V313.159H788.172H785.307C783.088 313.159 781.145 314.493 780.537 317.03C779.836 319.938 779.805 321.752 780.537 324.789C781.08 327.049 782.376 328.659 784.595 328.659H787.22V325.171C787.22 322.652 789.4 320.429 791.989 320.429H799.614C801.737 320.429 803.431 318.681 803.431 316.55V309.28C803.431 307.211 801.686 305.657 799.614 305.312C798.303 305.093 796.942 304.994 795.637 305ZM791.508 307.34C792.297 307.34 792.941 307.995 792.941 308.8C792.941 309.602 792.297 310.25 791.508 310.25C790.717 310.25 790.076 309.602 790.076 308.8C790.076 307.995 790.717 307.34 791.508 307.34Z" fill="#333836"/>
<path d="M804.383 313.159V316.549C804.383 319.178 802.155 321.39 799.614 321.39H791.989C789.9 321.39 788.172 323.177 788.172 325.269V332.539C788.172 334.608 789.971 335.824 791.989 336.418C794.405 337.129 796.723 337.257 799.614 336.418C801.536 335.862 803.431 334.742 803.431 332.539V329.629H795.806V328.659H803.431H807.248C809.467 328.659 810.294 327.112 811.065 324.789C811.862 322.397 811.828 320.098 811.065 317.03C810.517 314.821 809.47 313.159 807.248 313.159H804.383ZM800.094 331.569C800.886 331.569 801.527 332.217 801.527 333.019C801.527 333.824 800.886 334.478 800.094 334.478C799.306 334.478 798.662 333.824 798.662 333.019C798.662 332.217 799.306 331.569 800.094 331.569Z" fill="#333836"/>
<g clip-path="url(#clip0_11_87)">
<path d="M794.182 424.206C795.972 424.206 797.423 422.771 797.423 421C797.423 419.23 795.972 417.794 794.182 417.794C792.392 417.794 790.941 419.23 790.941 421C790.941 422.771 792.392 424.206 794.182 424.206Z" fill="#333836"/>
<path d="M794.182 427.568C803.787 427.568 811.573 424.627 811.573 421C811.573 417.373 803.787 414.432 794.182 414.432C784.577 414.432 776.791 417.373 776.791 421C776.791 424.627 784.577 427.568 794.182 427.568Z" stroke="#333836"/>
<path d="M788.431 424.284C793.234 432.511 799.701 437.711 802.877 435.897C806.053 434.083 804.735 425.943 799.932 417.716C795.13 409.489 788.662 404.29 785.486 406.103C782.31 407.917 783.629 416.057 788.431 424.284Z" stroke="#333836"/>
<path d="M788.431 417.716C783.629 425.943 782.31 434.083 785.486 435.897C788.662 437.711 795.13 432.511 799.933 424.284C804.735 416.057 806.054 407.917 802.877 406.103C799.701 404.29 793.234 409.489 788.431 417.716Z" stroke="#333836"/>
</g>
<path d="M116 504L117 504L116 504ZM176 564L176 565L176 564ZM370 564L370 563L370 564ZM430.707 493.293C430.317 492.902 429.683 492.902 429.293 493.293L422.929 499.657C422.538 500.047 422.538 500.681 422.929 501.071C423.319 501.462 423.953 501.462 424.343 501.071L430 495.414L435.657 501.071C436.047 501.462 436.681 501.462 437.071 501.071C437.462 500.681 437.462 500.047 437.071 499.657L430.707 493.293ZM115 494L115 504L117 504L117 494L115 494ZM176 565L370 565L370 563L176 563L176 565ZM431 504L431 494L429 494L429 504L431 504ZM370 565C403.689 565 431 537.689 431 504L429 504C429 536.585 402.585 563 370 563L370 565ZM115 504C115 537.689 142.311 565 176 565L176 563C143.415 563 117 536.585 117 504L115 504Z" fill="black"/>
<path d="M430 169L429 169L429 168L430 168L430 169ZM684 169L684 170L684 169ZM744.707 239.707C744.317 240.098 743.683 240.098 743.293 239.707L736.929 233.343C736.538 232.953 736.538 232.32 736.929 231.929C737.319 231.538 737.953 231.538 738.343 231.929L744 237.586L749.657 231.929C750.047 231.538 750.681 231.538 751.071 231.929C751.462 232.32 751.462 232.953 751.071 233.343L744.707 239.707ZM429 239L429 169L431 169L431 239L429 239ZM430 168L684 168L684 170L430 170L430 168ZM745 229L745 239L743 239L743 229L745 229ZM684 168C717.689 168 745 195.311 745 229L743 229C743 196.415 716.585 170 684 170L684 168Z" fill="black"/>
<path d="M176 169L176 168.5L176 169ZM116 229L115.5 229L115.5 229L116 229ZM115.647 239.354C115.842 239.549 116.158 239.549 116.354 239.354L119.536 236.172C119.731 235.976 119.731 235.66 119.536 235.465C119.34 235.269 119.024 235.269 118.829 235.465L116 238.293L113.172 235.465C112.977 235.269 112.66 235.269 112.465 235.465C112.269 235.66 112.269 235.976 112.465 236.172L115.647 239.354ZM425.5 168.5L423.488 168.5L423.488 169.5L425.5 169.5L425.5 168.5ZM419.464 168.5L415.44 168.5L415.44 169.5L419.464 169.5L419.464 168.5ZM411.415 168.5L407.391 168.5L407.391 169.5L411.415 169.5L411.415 168.5ZM403.367 168.5L399.343 168.5L399.343 169.5L403.367 169.5L403.367 168.5ZM395.319 168.5L391.294 168.5L391.294 169.5L395.319 169.5L395.319 168.5ZM387.27 168.5L383.246 168.5L383.246 169.5L387.27 169.5L387.27 168.5ZM379.222 168.5L375.198 168.5L375.198 169.5L379.222 169.5L379.222 168.5ZM371.173 168.5L367.149 168.5L367.149 169.5L371.173 169.5L371.173 168.5ZM363.125 168.5L359.101 168.5L359.101 169.5L363.125 169.5L363.125 168.5ZM355.077 168.5L351.052 168.5L351.052 169.5L355.077 169.5L355.077 168.5ZM347.028 168.5L343.004 168.5L343.004 169.5L347.028 169.5L347.028 168.5ZM338.98 168.5L334.956 168.5L334.956 169.5L338.98 169.5L338.98 168.5ZM330.931 168.5L326.907 168.5L326.907 169.5L330.931 169.5L330.931 168.5ZM322.883 168.5L318.859 168.5L318.859 169.5L322.883 169.5L322.883 168.5ZM314.835 168.5L310.811 168.5L310.811 169.5L314.835 169.5L314.835 168.5ZM306.786 168.5L302.762 168.5L302.762 169.5L306.786 169.5L306.786 168.5ZM298.738 168.5L294.714 168.5L294.714 169.5L298.738 169.5L298.738 168.5ZM290.69 168.5L286.665 168.5L286.665 169.5L290.69 169.5L290.69 168.5ZM282.641 168.5L278.617 168.5L278.617 169.5L282.641 169.5L282.641 168.5ZM274.593 168.5L270.569 168.5L270.569 169.5L274.593 169.5L274.593 168.5ZM266.544 168.5L262.52 168.5L262.52 169.5L266.544 169.5L266.544 168.5ZM258.496 168.5L254.472 168.5L254.472 169.5L258.496 169.5L258.496 168.5ZM250.448 168.5L246.424 168.5L246.424 169.5L250.448 169.5L250.448 168.5ZM242.399 168.5L238.375 168.5L238.375 169.5L242.399 169.5L242.399 168.5ZM234.351 168.5L230.327 168.5L230.327 169.5L234.351 169.5L234.351 168.5ZM226.303 168.5L222.278 168.5L222.278 169.5L226.303 169.5L226.303 168.5ZM218.254 168.5L214.23 168.5L214.23 169.5L218.254 169.5L218.254 168.5ZM210.206 168.5L206.182 168.5L206.182 169.5L210.206 169.5L210.206 168.5ZM202.158 168.5L198.133 168.5L198.133 169.5L202.158 169.5L202.158 168.5ZM194.109 168.5L190.085 168.5L190.085 169.5L194.109 169.5L194.109 168.5ZM186.061 168.5L182.037 168.5L182.037 169.5L186.061 169.5L186.061 168.5ZM178.012 168.5L176 168.5L176 169.5L178.012 169.5L178.012 168.5ZM176 168.5C175.336 168.5 174.675 168.511 174.017 168.532L174.049 169.531C174.697 169.511 175.347 169.5 176 169.5L176 168.5ZM170.068 168.787C168.746 168.916 167.437 169.087 166.141 169.299L166.303 170.286C167.577 170.077 168.865 169.909 170.165 169.782L170.068 168.787ZM162.256 170.068C160.965 170.368 159.69 170.709 158.432 171.09L158.722 172.047C159.959 171.673 161.213 171.337 162.483 171.042L162.256 170.068ZM154.683 172.363C153.443 172.829 152.223 173.336 151.024 173.88L151.438 174.79C152.617 174.255 153.816 173.758 155.035 173.299L154.683 172.363ZM147.475 175.633C146.309 176.258 145.166 176.919 144.048 177.616L144.577 178.465C145.677 177.779 146.801 177.129 147.947 176.515L147.475 175.633ZM140.758 179.819C139.685 180.589 138.638 181.394 137.619 182.231L138.253 183.004C139.256 182.18 140.285 181.389 141.341 180.631L140.758 179.819ZM134.643 184.843C133.679 185.746 132.746 186.679 131.843 187.643L132.573 188.326C133.461 187.379 134.379 186.461 135.327 185.573L134.643 184.843ZM129.231 190.618C128.394 191.637 127.59 192.684 126.819 193.758L127.632 194.341C128.389 193.285 129.181 192.256 130.004 191.253L129.231 190.618ZM124.616 197.048C123.919 198.166 123.258 199.309 122.634 200.475L123.515 200.947C124.129 199.801 124.78 198.677 125.465 197.577L124.616 197.048ZM120.88 204.024C120.336 205.223 119.83 206.443 119.363 207.682L120.299 208.035C120.758 206.816 121.255 205.617 121.791 204.438L120.88 204.024ZM118.09 211.432C117.709 212.69 117.368 213.965 117.068 215.256L118.042 215.482C118.337 214.213 118.673 212.959 119.048 211.722L118.09 211.432ZM116.3 219.141C116.087 220.437 115.916 221.746 115.787 223.068L116.783 223.165C116.909 221.865 117.078 220.577 117.286 219.303L116.3 219.141ZM115.532 227.016C115.511 227.675 115.5 228.336 115.5 229L116.5 229C116.5 228.347 116.511 227.697 116.532 227.049L115.532 227.016ZM115.5 229L115.5 231.5L116.5 231.5L116.5 229L115.5 229ZM115.5 236.5L115.5 239L116.5 239L116.5 236.5L115.5 236.5ZM176 169L176 168L176 169ZM116 229L115 229L116 229ZM115.293 239.707C115.684 240.098 116.317 240.098 116.707 239.707L123.071 233.343C123.462 232.953 123.462 232.319 123.071 231.929C122.681 231.538 122.048 231.538 121.657 231.929L116 237.586L110.343 231.929C109.953 231.538 109.32 231.538 108.929 231.929C108.539 232.32 108.539 232.953 108.929 233.343L115.293 239.707ZM425.5 168L423.488 168L423.488 170L425.5 170L425.5 168ZM419.464 168L415.44 168L415.44 170L419.464 170L419.464 168ZM411.415 168L407.391 168L407.391 170L411.415 170L411.415 168ZM403.367 168L399.343 168L399.343 170L403.367 170L403.367 168ZM395.319 168L391.294 168L391.294 170L395.319 170L395.319 168ZM387.27 168L383.246 168L383.246 170L387.27 170L387.27 168ZM379.222 168L375.198 168L375.198 170L379.222 170L379.222 168ZM371.173 168L367.149 168L367.149 170L371.173 170L371.173 168ZM363.125 168L359.101 168L359.101 170L363.125 170L363.125 168ZM355.077 168L351.052 168L351.052 170L355.077 170L355.077 168ZM347.028 168L343.004 168L343.004 170L347.028 170L347.028 168ZM338.98 168L334.956 168L334.956 170L338.98 170L338.98 168ZM330.931 168L326.907 168L326.907 170L330.931 170L330.931 168ZM322.883 168L318.859 168L318.859 170L322.883 170L322.883 168ZM314.835 168L310.811 168L310.811 170L314.835 170L314.835 168ZM306.786 168L302.762 168L302.762 170L306.786 170L306.786 168ZM298.738 168L294.714 168L294.714 170L298.738 170L298.738 168ZM290.69 168L286.665 168L286.665 170L290.69 170L290.69 168ZM282.641 168L278.617 168L278.617 170L282.641 170L282.641 168ZM274.593 168L270.569 168L270.569 170L274.593 170L274.593 168ZM266.544 168L262.52 168L262.52 170L266.544 170L266.544 168ZM258.496 168L254.472 168L254.472 170L258.496 170L258.496 168ZM250.448 168L246.424 168L246.424 170L250.448 170L250.448 168ZM242.399 168L238.375 168L238.375 170L242.399 170L242.399 168ZM234.351 168L230.327 168L230.327 170L234.351 170L234.351 168ZM226.303 168L222.278 168L222.278 170L226.303 170L226.303 168ZM218.254 168L214.23 168L214.23 170L218.254 170L218.254 168ZM210.206 168L206.182 168L206.182 170L210.206 170L210.206 168ZM202.158 168L198.133 168L198.133 170L202.158 170L202.158 168ZM194.109 168L190.085 168L190.085 170L194.109 170L194.109 168ZM186.061 168L182.037 168L182.037 170L186.061 170L186.061 168ZM178.012 168L176 168L176 170L178.012 170L178.012 168ZM176 168C175.331 168 174.664 168.011 174.001 168.032L174.065 170.031C174.707 170.01 175.353 170 176 170L176 168ZM170.02 168.289C168.687 168.419 167.367 168.592 166.06 168.806L166.384 170.78C167.647 170.573 168.924 170.406 170.214 170.28L170.02 168.289ZM162.143 169.581C160.841 169.883 159.556 170.227 158.287 170.612L158.867 172.526C160.094 172.154 161.337 171.822 162.596 171.529L162.143 169.581ZM154.506 171.895C153.257 172.365 152.027 172.876 150.818 173.424L151.644 175.246C152.813 174.715 154.003 174.222 155.211 173.767L154.506 171.895ZM147.239 175.193C146.064 175.822 144.911 176.489 143.783 177.192L144.841 178.889C145.932 178.21 147.047 177.565 148.183 176.956L147.239 175.193ZM140.466 179.413C139.384 180.19 138.329 181.001 137.301 181.845L138.571 183.39C139.565 182.574 140.586 181.789 141.632 181.038L140.466 179.413ZM134.301 184.478C133.33 185.388 132.388 186.33 131.478 187.301L132.938 188.668C133.818 187.729 134.729 186.818 135.668 185.938L134.301 184.478ZM128.845 190.301C128.001 191.328 127.19 192.384 126.413 193.466L128.038 194.632C128.789 193.586 129.574 192.565 130.39 191.571L128.845 190.301ZM124.192 196.783C123.489 197.911 122.822 199.064 122.193 200.239L123.956 201.183C124.565 200.046 125.21 198.932 125.89 197.841L124.192 196.783ZM120.425 203.818C119.876 205.027 119.366 206.257 118.895 207.506L120.767 208.211C121.222 207.003 121.715 205.813 122.246 204.644L120.425 203.818ZM117.612 211.287C117.228 212.555 116.884 213.841 116.581 215.143L118.529 215.596C118.822 214.337 119.154 213.093 119.526 211.867L117.612 211.287ZM115.806 219.06C115.592 220.367 115.419 221.687 115.29 223.02L117.28 223.214C117.406 221.924 117.573 220.647 117.78 219.384L115.806 219.06ZM115.032 227C115.011 227.664 115 228.331 115 229L117 229C117 228.352 117.011 227.707 117.031 227.065L115.032 227ZM115 229L115 231.5L117 231.5L117 229L115 229ZM115 236.5L115 239L117 239L117 236.5L115 236.5Z" fill="black"/>
<defs>
<filter id="filter0_d_11_87" x="64" y="6.10352e-05" width="733" height="733" filterUnits="userSpaceOnUse" color-interpolation-filters="sRGB">
<feFlood flood-opacity="0" result="BackgroundImageFix"/>
<feColorMatrix in="SourceAlpha" type="matrix" values="0 0 0 0 0 0 0 0 0 0 0 0 0 0 0 0 0 0 127 0" result="hardAlpha"/>
<feOffset/>
<feGaussianBlur stdDeviation="125"/>
<feComposite in2="hardAlpha" operator="out"/>
<feColorMatrix type="matrix" values="0 0 0 0 0.121569 0 0 0 0 1 0 0 0 0 0.568627 0 0 0 0.4 0"/>
<feBlend mode="normal" in2="BackgroundImageFix" result="effect1_dropShadow_11_87"/>
<feBlend mode="normal" in="SourceGraphic" in2="effect1_dropShadow_11_87" result="shape"/>
</filter>
<clipPath id="clip0_11_87">
<rect width="36.3636" height="32" fill="white" transform="translate(776 405)"/>
</clipPath>
</defs>
</svg>
