<svg width="127" height="127" viewBox="0 0 127 127" fill="none" xmlns="http://www.w3.org/2000/svg">
<path fill-rule="evenodd" clip-rule="evenodd" d="M63.6968 0C58.0802 13.7704 54.6925 22.7779 48.4392 36.139C52.2733 40.2032 56.9794 44.9361 64.6222 50.2814C56.4055 46.9003 50.8006 43.5057 46.612 39.9831C38.6089 56.6828 26.0704 80.4708 0.625549 126.19C20.6243 114.644 36.127 107.526 50.5748 104.81C49.9544 102.142 49.6017 99.2557 49.6256 96.2442L49.6493 95.6035C49.9667 82.7908 56.6318 72.9379 64.5273 73.6069C72.4228 74.2759 78.5599 85.2112 78.2426 98.0239C78.1829 100.435 77.911 102.754 77.4358 104.905C91.7267 107.701 107.064 114.801 126.792 126.19C122.902 119.028 119.43 112.572 116.114 106.424C110.891 102.376 105.443 97.1071 94.3308 91.4035C101.969 93.3882 107.438 95.678 111.7 98.2374C77.9876 35.4704 75.2576 27.1299 63.6968 0Z" fill="#1793D1"/>
</svg>
