<svg width="64" height="28" viewBox="0 0 64 28" fill="none" xmlns="http://www.w3.org/2000/svg">
<path d="M40.4288 1.5471C41.1584 0.817634 42.341 0.817634 43.0705 1.5471L62.7599 21.2365C63.4895 21.966 63.4895 23.1487 62.7599 23.8782C62.0304 24.6077 60.8478 24.6077 60.1182 23.8782L40.4288 4.18882C39.6996 3.45932 39.6996 2.27659 40.4288 1.5471Z" fill="#727976"/>
<path d="M40.4465 23.8953C39.717 23.1658 39.717 21.9831 40.4465 21.2536L60.1359 1.56421C60.8655 0.834715 62.0481 0.834715 62.7776 1.56421C63.5072 2.29371 63.5072 3.4764 62.7776 4.2059L43.0883 23.8953C42.3587 24.6248 41.1761 24.6248 40.4465 23.8953Z" fill="#727976"/>
<path d="M40.5741 23.7681C39.9148 23.1089 39.9148 22.0402 40.5741 21.381L60.2635 1.69162C60.9225 1.03248 61.9913 1.03248 62.6503 1.69162C63.3096 2.35079 63.3096 3.41954 62.6503 4.07871L42.9609 23.7681C42.3019 24.4272 41.2331 24.4272 40.5741 23.7681Z" fill="#727976" stroke="#727976"/>
<path d="M7.66759 21.2851C6.2134 21.2851 4.90239 20.9242 3.73464 20.2026C2.56688 19.481 1.65249 18.4969 0.991498 17.2504C0.330499 16.004 0 14.6044 0 13.0518C0 11.4773 0.330499 10.0668 0.991498 8.8203C1.65249 7.57382 2.56688 6.58976 3.73464 5.86812C4.90239 5.14648 6.2134 4.78564 7.66759 4.78564C8.81331 4.78564 9.83784 5.01529 10.7412 5.47451C11.6446 5.93374 12.3607 6.57885 12.8895 7.40982C13.4403 8.21894 13.7377 9.13742 13.7818 10.1652V15.8727C13.7377 16.9224 13.4403 17.8518 12.8895 18.6609C12.3607 19.4701 11.6446 20.1151 10.7412 20.5963C9.83784 21.0555 8.81331 21.2851 7.66759 21.2851ZM8.46079 17.3161C9.67262 17.3161 10.6531 16.9224 11.4022 16.1352C12.1513 15.326 12.5259 14.2873 12.5259 13.019C12.5259 12.188 12.3497 11.4554 11.9971 10.8213C11.6666 10.1652 11.1929 9.66222 10.576 9.31232C9.98106 8.94058 9.27602 8.75472 8.46079 8.75472C7.66759 8.75472 6.96252 8.94058 6.3456 9.31232C5.75068 9.66222 5.27699 10.1652 4.92443 10.8213C4.59395 11.4554 4.42869 12.188 4.42869 13.019C4.42869 13.8718 4.59395 14.6263 4.92443 15.2823C5.27699 15.9165 5.75068 16.4195 6.3456 16.7912C6.96252 17.1411 7.66759 17.3161 8.46079 17.3161ZM12.2946 20.9571V16.6928L12.9886 12.8222L12.2946 9.01714V5.11368H16.5911V20.9571H12.2946Z" fill="#727976"/>
<path d="M29.2775 21.284C28.1317 21.284 27.0962 21.0544 26.1709 20.5952C25.2455 20.1141 24.5074 19.469 23.9566 18.6599C23.4058 17.8508 23.1084 16.9214 23.0643 15.8718V10.2629C23.1084 9.21328 23.4058 8.28393 23.9566 7.47484C24.5294 6.64387 25.2676 5.98787 26.1709 5.5068C27.0962 5.02571 28.1317 4.78516 29.2775 4.78516C30.7536 4.78516 32.0756 5.14598 33.2433 5.86759C34.411 6.5892 35.3254 7.57322 35.9863 8.81965C36.6693 10.0661 37.0107 11.4765 37.0107 13.051C37.0107 14.6035 36.6693 16.003 35.9863 17.2495C35.3254 18.4959 34.411 19.4799 33.2433 20.2015C32.0756 20.9231 30.7536 21.284 29.2775 21.284ZM28.5173 17.3151C29.3105 17.3151 30.0155 17.1401 30.6324 16.7903C31.2493 16.4185 31.723 15.9156 32.0535 15.2814C32.406 14.6254 32.5823 13.871 32.5823 13.0182C32.5823 12.1872 32.406 11.4547 32.0535 10.8205C31.723 10.1645 31.2493 9.66154 30.6324 9.31166C30.0155 8.93993 29.3105 8.75408 28.5173 8.75408C27.7462 8.75408 27.0522 8.93993 26.4353 9.31166C25.8184 9.66154 25.3336 10.1645 24.9811 10.8205C24.6506 11.4547 24.4854 12.1872 24.4854 13.0182C24.4854 13.871 24.6506 14.6254 24.9811 15.2814C25.3336 15.9156 25.8073 16.4185 26.4022 16.7903C27.0191 17.1401 27.7241 17.3151 28.5173 17.3151ZM20.4204 27.5817V5.11317H24.7498V9.27889L24.0227 13.1166L24.7167 16.9543V27.5817H20.4204Z" fill="#727976"/>
</svg>
