<svg width="352" height="39" viewBox="0 0 352 39" fill="none" xmlns="http://www.w3.org/2000/svg">
<path d="M4.93334 14.6835C4.80603 14.6835 4.7742 14.6198 4.83786 14.5244L5.50625 13.665C5.5699 13.5695 5.72905 13.5059 5.85636 13.5059H17.219C17.3463 13.5059 17.3781 13.6013 17.3145 13.6968L16.7734 14.5244C16.7098 14.6198 16.5506 14.7153 16.4551 14.7153L4.93334 14.6835Z" fill="#727976"/>
<path d="M0.127313 17.6112C2.65595e-07 17.6112 -0.0318282 17.5476 0.031828 17.4521L0.700219 16.5927C0.763875 16.4973 0.923016 16.4336 1.05033 16.4336H15.564C15.6913 16.4336 15.7549 16.5291 15.7231 16.6246L15.4685 17.3884C15.4366 17.5158 15.3093 17.5794 15.182 17.5794L0.127313 17.6112Z" fill="#727976"/>
<path d="M7.8297 20.5395C7.70239 20.5395 7.67056 20.444 7.73422 20.3485L8.17982 19.5528C8.24347 19.4573 8.37078 19.3618 8.4981 19.3618H14.8637C14.991 19.3618 15.0547 19.4573 15.0547 19.5846L14.991 20.3485C14.991 20.4758 14.8637 20.5713 14.7682 20.5713L7.8297 20.5395Z" fill="#727976"/>
<path d="M40.8673 14.1107C38.8621 14.62 37.4935 15.0019 35.5202 15.5112C35.0428 15.6385 35.0109 15.6703 34.5972 15.1929C34.1197 14.6518 33.7696 14.3017 33.1012 13.9834C31.0961 12.9967 29.1546 13.2832 27.3404 14.4608C25.176 15.8613 24.0621 17.9301 24.0939 20.5082C24.1257 23.0544 25.8763 25.1551 28.3907 25.5052C30.555 25.7916 32.3692 25.0278 33.8015 23.4045C34.0879 23.0544 34.3425 22.6725 34.6608 22.2269C33.515 22.2269 32.0827 22.2269 28.518 22.2269C27.8496 22.2269 27.6905 21.8131 27.9133 21.272C28.327 20.2854 29.0909 18.6303 29.5365 17.8028C29.632 17.6118 29.8548 17.2935 30.3322 17.2935C31.9554 17.2935 37.9391 17.2935 41.9176 17.2935C41.854 18.1529 41.854 19.0123 41.7267 19.8716C41.3766 22.1632 40.5172 24.2639 39.1168 26.1099C36.8251 29.1336 33.8333 31.0115 30.0457 31.5207C26.9266 31.9345 24.0302 31.3297 21.484 29.42C19.1287 27.6377 17.7919 25.2824 17.4418 22.3542C17.028 18.8849 18.0465 15.7658 20.1472 13.0286C22.407 10.0685 25.3988 8.19069 29.0591 7.5223C32.0509 6.98122 34.9155 7.33133 37.4935 9.08188C39.1804 10.1959 40.3899 11.7236 41.1856 13.5696C41.3766 13.8561 41.2493 14.0152 40.8673 14.1107Z" fill="#727976"/>
<path d="M51.4025 31.7114C48.5061 31.6477 45.8644 30.8202 43.6364 28.9105C41.7586 27.2873 40.5809 25.2184 40.199 22.7677C39.6261 19.1711 40.6128 15.9883 42.7771 13.1556C45.1005 10.1001 47.9014 8.50868 51.6889 7.84029C54.9354 7.26738 57.9909 7.58566 60.76 9.46352C63.2744 11.1822 64.834 13.5057 65.2477 16.5612C65.7888 20.858 64.5475 24.3591 61.5875 27.3509C59.4868 29.4834 56.9088 30.8202 53.9487 31.4249C53.0894 31.5841 52.23 31.6159 51.4025 31.7114ZM58.9776 18.8528C58.9458 18.4391 58.9458 18.1208 58.8821 17.8025C58.3092 14.6515 55.4128 12.8691 52.3892 13.5694C49.4291 14.2377 47.5195 16.1156 46.8192 19.1074C46.2463 21.59 47.4558 24.1045 49.7474 25.123C51.498 25.8868 53.2485 25.7914 54.9354 24.932C57.4498 23.627 58.8184 21.59 58.9776 18.8528Z" fill="#727976"/>
<g clip-path="url(#clip0_25_545)">
<path d="M116.384 -0.0134541C111.334 2.39555 104.264 10.2125 116.377 22.2088C116.667 20.1598 117.131 17.7767 117.644 15.4136C118.93 9.48588 120.525 3.68493 120.458 3.60453C119.443 2.37852 118.105 1.16539 116.384 -0.0134541Z" fill="#727976"/>
<path fill-rule="evenodd" clip-rule="evenodd" d="M120.455 3.58716C120.507 3.64958 120.608 3.77452 120.608 3.77452C120.608 3.77452 117.894 18.1727 116.371 22.1995C115.971 21.7199 115.38 21.0608 114.795 19.9567C113.972 18.4045 112.503 14.2483 113.958 9.9286C115.346 5.81044 118.076 4.20498 120.455 3.58716Z" fill="#727976"/>
<path fill-rule="evenodd" clip-rule="evenodd" d="M120.609 3.77041C126.351 10.9449 121.116 18.5196 116.372 22.1989C114.289 20.0231 112.428 15.1424 114.186 10.0097C115.594 5.897 118.252 4.44256 120.609 3.77041Z" fill="#727976"/>
<path d="M137.346 13.6262C132.99 10.0142 122.686 6.65753 116.315 22.127C118.373 21.603 120.819 21.1072 123.266 20.663C129.404 19.5489 135.549 18.7602 135.598 18.6697C136.341 17.2892 136.938 15.6225 137.346 13.6262Z" fill="#727976"/>
<path fill-rule="evenodd" clip-rule="evenodd" d="M135.578 18.675C135.54 18.7452 135.463 18.8835 135.463 18.8835C135.463 18.8835 120.736 21.9558 116.304 22.1306C116.593 21.5881 116.974 20.8059 117.777 19.8588C118.907 18.5273 122.232 15.6197 126.914 15.2731C131.377 14.9427 134.017 16.7775 135.578 18.675Z" fill="#727976"/>
<path fill-rule="evenodd" clip-rule="evenodd" d="M135.459 18.8827C131.036 26.7733 121.728 24.9754 116.304 22.1292C117.505 19.4295 121.353 15.8955 126.926 15.509C131.39 15.1994 133.856 17.0265 135.459 18.8827Z" fill="#727976"/>
<path d="M100.794 38.5126C106.248 40.0331 116.985 38.898 116.301 22.1927C114.655 23.5089 112.646 24.9574 110.614 26.3591C105.518 29.8754 100.28 33.0976 100.273 33.2001C100.176 34.7619 100.331 36.5255 100.794 38.5126Z" fill="#727976"/>
<path fill-rule="evenodd" clip-rule="evenodd" d="M100.272 33.2001C100.277 33.1206 100.289 32.9632 100.289 32.9632C100.289 32.9632 112.356 24.1581 116.301 22.1924C116.265 22.8053 116.247 23.6742 115.914 24.8659C115.446 26.5414 113.645 30.5501 109.546 32.7743C105.638 34.8946 102.479 34.2956 100.272 33.2001Z" fill="#727976"/>
<path fill-rule="evenodd" clip-rule="evenodd" d="M100.288 32.9634C101.003 23.958 110.194 21.8054 116.301 22.1925C116.339 25.1463 114.326 29.9407 109.435 32.5647C105.516 34.6672 102.517 34.0045 100.288 32.9634Z" fill="#727976"/>
<path d="M131.437 38.85C133.549 33.747 133.474 23.2712 116.283 22.1917C117.465 23.9166 118.746 26.0055 119.976 28.1113C123.064 33.3937 125.835 38.7826 125.939 38.7993C127.53 39.0554 129.354 39.0902 131.437 38.85Z" fill="#727976"/>
<path fill-rule="evenodd" clip-rule="evenodd" d="M125.941 38.8052C125.86 38.7922 125.7 38.7644 125.7 38.7644C125.7 38.7644 117.898 26.2055 116.283 22.195C116.908 22.293 117.797 22.401 118.984 22.8463C120.654 23.4723 124.581 25.627 126.445 29.8135C128.222 33.8046 127.288 36.7895 125.941 38.8052Z" fill="#727976"/>
<path fill-rule="evenodd" clip-rule="evenodd" d="M125.7 38.7656C116.541 37.1381 115.267 28.047 116.283 22.1952C119.314 22.4654 124.025 24.9075 126.219 29.8995C127.977 33.8996 126.993 36.7239 125.7 38.7656Z" fill="#727976"/>
<path d="M95.4474 13.2872C95.6954 18.8491 100.198 28.4126 116.223 22.1712C114.422 21.0884 112.378 19.7139 110.372 18.3027C105.34 14.7629 100.549 10.9928 100.448 11.0213C98.8985 11.4559 97.2327 12.1908 95.4474 13.2872Z" fill="#727976"/>
<path fill-rule="evenodd" clip-rule="evenodd" d="M100.458 11.0546C100.536 11.0325 100.693 10.9906 100.693 10.9906C100.693 10.9906 113.065 19.2001 116.222 22.1898C115.616 22.3625 114.766 22.6369 113.503 22.7286C111.727 22.8574 107.262 22.5358 103.805 19.4898C100.509 16.586 100.091 13.4637 100.458 11.0546Z" fill="#727976"/>
<path fill-rule="evenodd" clip-rule="evenodd" d="M100.694 10.9972C109.667 8.64027 114.663 16.4149 116.218 22.1904C113.362 23.2161 108.068 22.9612 103.973 19.3191C100.692 16.4007 100.387 13.4063 100.694 10.9972Z" fill="#727976"/>
</g>
<path d="M183.992 0.929097C183.287 0.929252 182.595 1.11495 181.984 1.46754L169.379 8.7445C168.769 9.09712 168.262 9.60424 167.909 10.2149C167.557 10.8256 167.371 11.5183 167.371 12.2233V26.7773C167.371 27.4824 167.557 28.175 167.909 28.7857C168.262 29.3964 168.769 29.9035 169.379 30.2561L181.984 37.5335C182.595 37.8859 183.287 38.0714 183.992 38.0714C184.697 38.0714 185.39 37.8859 186 37.5335L198.605 30.2561C199.216 29.9035 199.723 29.3964 200.075 28.7857C200.428 28.175 200.613 27.4824 200.613 26.7773V12.2233C200.613 11.5183 200.428 10.8256 200.075 10.2149C199.723 9.60424 199.216 9.09712 198.605 8.7445L186 1.46754C185.39 1.11482 184.697 0.929369 183.992 0.929097ZM183.76 2.32063C184.07 2.26599 184.389 2.32237 184.662 2.47989L196.852 9.51758C196.919 9.55678 196.976 9.61313 197.015 9.68098C197.054 9.74883 197.075 9.82578 197.075 9.90412C197.075 9.98245 197.054 10.0594 197.015 10.1273C196.976 10.1951 196.919 10.2515 196.852 10.2907L184.662 17.3283C184.458 17.4459 184.227 17.5077 183.992 17.5077C183.757 17.5077 183.526 17.4459 183.323 17.3283L171.133 10.2907C171.065 10.2515 171.009 10.1951 170.97 10.1273C170.93 10.0594 170.91 9.98245 170.91 9.90412C170.91 9.82578 170.93 9.74883 170.97 9.68098C171.009 9.61313 171.065 9.55678 171.133 9.51758L183.323 2.47989C183.458 2.40174 183.606 2.34784 183.76 2.32063ZM169.286 12.9164C169.39 12.8983 169.496 12.917 169.587 12.9694L181.777 20.0071C181.98 20.1246 182.149 20.2936 182.267 20.4972C182.384 20.7007 182.446 20.9316 182.446 21.1667V35.2421C182.446 35.3204 182.425 35.3973 182.386 35.4652C182.347 35.533 182.291 35.5893 182.223 35.6285C182.155 35.6676 182.078 35.6883 182 35.6883C181.921 35.6883 181.844 35.6677 181.777 35.6286L169.587 28.5909C169.383 28.4734 169.214 28.3043 169.097 28.1008C168.979 27.8972 168.917 27.6663 168.917 27.4313V13.3559C168.917 13.2509 168.954 13.1493 169.022 13.069C169.089 12.9886 169.183 12.9346 169.286 12.9164ZM198.698 12.9164C198.801 12.9346 198.895 12.9886 198.963 13.069C199.03 13.1493 199.067 13.2509 199.067 13.3559V27.4313C199.067 27.6663 199.005 27.8972 198.888 28.1008C198.77 28.3043 198.601 28.4734 198.398 28.5909L186.208 35.6286C186.14 35.6677 186.063 35.6883 185.985 35.6883C185.906 35.6883 185.829 35.6676 185.762 35.6285C185.694 35.5893 185.637 35.533 185.598 35.4652C185.559 35.3973 185.538 35.3204 185.538 35.2421V21.1667C185.538 20.9316 185.6 20.7007 185.718 20.4972C185.835 20.2936 186.004 20.1246 186.208 20.0071L198.398 12.9694C198.488 12.917 198.595 12.8983 198.698 12.9164Z" fill="#727976"/>
<path d="M188.113 24.7275L190.695 24.2567L188.113 26.7936V28.3049L192.067 24.1233V22.8315L188.113 23.2158V24.7275ZM196.493 25.3811V24.1469L192.366 26.5292V27.7638L196.493 25.3811Z" fill="#727976"/>
<path d="M171.492 19.8898L174.074 22.4003L171.492 21.9558V23.4672L175.446 23.8518V22.56L171.492 18.3784V19.8898ZM179.872 30.22V28.9854L175.745 26.6032V27.8374L179.872 30.22Z" fill="#727976"/>
<path d="M178.079 11.3284L181.544 10.3477L179.868 12.3616L181.177 13.1173L183.487 9.88505L182.368 9.23876L176.77 10.5723L178.079 11.3284ZM191.215 9.23644L190.146 8.61914L186.019 11.0014L187.088 11.6187L191.215 9.23644Z" fill="#727976"/>
<g clip-path="url(#clip1_25_545)">
<path d="M276.442 14.3751C276.164 12.3754 275.054 10.6392 273.049 9.07055L271.89 8.29223L271.118 9.45372C270.128 10.9505 269.633 13.034 269.79 15.0337C269.862 15.7282 270.092 16.9974 270.804 18.0871C270.092 18.4822 268.679 19.0091 266.796 18.9731H230.819L230.746 19.3922C230.408 21.3919 230.408 27.6544 234.452 32.456C237.531 36.1081 242.131 37.9641 248.143 37.9641C261.182 37.9641 270.816 31.9411 275.343 20.9728C277.118 21.0087 280.945 20.9848 282.913 17.2129C282.961 17.1291 283.082 16.9016 283.42 16.1832L283.613 15.788L282.515 15.0456C281.307 14.2673 278.567 13.968 276.442 14.3751ZM259.588 1H254.119V5.9932H259.588V1ZM259.588 6.99903H254.119V11.9922H259.588V6.99903ZM253.117 6.99903H247.648V11.9922H253.117V6.99903ZM246.658 6.99903H241.189V11.9922H246.658V6.99903ZM240.187 12.9981H234.718V17.9913H240.187V12.9981ZM246.658 12.9981H241.189V17.9913H246.658V12.9981ZM253.117 12.9981H247.648V17.9913H253.117V12.9981ZM259.588 12.9981H254.119V17.9913H259.588V12.9981ZM266.059 12.9981H260.59V17.9913H266.059V12.9981Z" fill="#727976"/>
</g>
<g clip-path="url(#clip2_25_545)">
<path fill-rule="evenodd" clip-rule="evenodd" d="M332.557 1C322.082 1 313.613 9.47917 313.613 19.9691C313.613 28.3542 319.039 35.452 326.566 37.9642C327.507 38.153 327.852 37.556 327.852 37.0538C327.852 36.614 327.821 35.1067 327.821 33.5361C322.552 34.6669 321.454 31.2749 321.454 31.2749C320.607 29.0764 319.353 28.5114 319.353 28.5114C317.628 27.3494 319.478 27.3494 319.478 27.3494C321.391 27.475 322.395 29.2965 322.395 29.2965C324.089 32.1856 326.817 31.3693 327.915 30.8667C328.072 29.6419 328.574 28.7939 329.107 28.323C324.904 27.8832 320.482 26.2502 320.482 18.9639C320.482 16.8911 321.234 15.1953 322.426 13.8764C322.238 13.4054 321.579 11.4579 322.615 8.85132C322.615 8.85132 324.214 8.34874 327.821 10.7984C329.365 10.3832 330.957 10.172 332.557 10.1702C334.156 10.1702 335.787 10.3903 337.292 10.7984C340.899 8.34874 342.499 8.85132 342.499 8.85132C343.534 11.4579 342.875 13.4054 342.687 13.8764C343.91 15.1953 344.631 16.8911 344.631 18.9639C344.631 26.2502 340.21 27.8516 335.975 28.323C336.665 28.9196 337.261 30.05 337.261 31.8403C337.261 34.384 337.23 36.4256 337.23 37.0534C337.23 37.556 337.575 38.153 338.516 37.9645C346.043 35.4516 351.469 28.3542 351.469 19.9691C351.5 9.47917 343.001 1 332.557 1Z" fill="#727976"/>
</g>
<defs>
<clipPath id="clip0_25_545">
<rect width="42" height="39" fill="white" transform="translate(95.3711)"/>
</clipPath>
<clipPath id="clip1_25_545">
<rect width="53" height="37" fill="white" transform="translate(230.613 1)"/>
</clipPath>
<clipPath id="clip2_25_545">
<rect width="38" height="37" fill="white" transform="translate(313.613 1)"/>
</clipPath>
</defs>
</svg>
