<svg width="64" height="28" viewBox="0 0 64 28" fill="none" xmlns="http://www.w3.org/2000/svg">
<path d="M40.4288 1.5471C41.1584 0.817634 42.341 0.817634 43.0705 1.5471L62.7599 21.2365C63.4895 21.966 63.4895 23.1487 62.7599 23.8782C62.0304 24.6077 60.8478 24.6077 60.1182 23.8782L40.4288 4.18882C39.6996 3.45932 39.6996 2.27659 40.4288 1.5471Z" fill="url(#paint0_linear_2_17)"/>
<path d="M40.4465 23.8954C39.717 23.1659 39.717 21.9832 40.4465 21.2537L60.1359 1.56434C60.8655 0.834837 62.0481 0.834837 62.7776 1.56434C63.5072 2.29383 63.5072 3.47652 62.7776 4.20602L43.0883 23.8954C42.3587 24.6249 41.1761 24.6249 40.4465 23.8954Z" fill="url(#paint1_linear_2_17)"/>
<path d="M40.5741 23.7682C39.9148 23.1091 39.9148 22.0403 40.5741 21.3812L60.2635 1.69174C60.9225 1.0326 61.9913 1.0326 62.6503 1.69174C63.3096 2.35091 63.3096 3.41966 62.6503 4.07883L42.9609 23.7682C42.3019 24.4274 41.2331 24.4274 40.5741 23.7682Z" stroke="#19FF20"/>
<path d="M7.66759 21.2848C6.2134 21.2848 4.90239 20.924 3.73464 20.2024C2.56688 19.4807 1.65249 18.4967 0.991498 17.2502C0.330499 16.0037 0 14.6042 0 13.0515C0 11.477 0.330499 10.0666 0.991498 8.82005C1.65249 7.57358 2.56688 6.58952 3.73464 5.86788C4.90239 5.14624 6.2134 4.7854 7.66759 4.7854C8.81331 4.7854 9.83784 5.01505 10.7412 5.47427C11.6446 5.93349 12.3607 6.57861 12.8895 7.40958C13.4403 8.21869 13.7377 9.13717 13.7818 10.1649V15.8725C13.7377 16.9222 13.4403 17.8516 12.8895 18.6607C12.3607 19.4698 11.6446 20.1149 10.7412 20.596C9.83784 21.0552 8.81331 21.2848 7.66759 21.2848ZM8.46079 17.3158C9.67262 17.3158 10.6531 16.9222 11.4022 16.1349C12.1513 15.3258 12.5259 14.2871 12.5259 13.0187C12.5259 12.1877 12.3497 11.4552 11.9971 10.821C11.6666 10.1649 11.1929 9.66197 10.576 9.31208C9.98106 8.94033 9.27602 8.75448 8.46079 8.75448C7.66759 8.75448 6.96252 8.94033 6.3456 9.31208C5.75068 9.66197 5.27699 10.1649 4.92443 10.821C4.59395 11.4552 4.42869 12.1877 4.42869 13.0187C4.42869 13.8716 4.59395 14.626 4.92443 15.2821C5.27699 15.9162 5.75068 16.4192 6.3456 16.791C6.96252 17.1409 7.66759 17.3158 8.46079 17.3158ZM12.2946 20.9568V16.6925L12.9886 12.8219L12.2946 9.01689V5.11343H16.5911V20.9568H12.2946Z" fill="#01FF82"/>
<path d="M29.2775 21.2841C28.1317 21.2841 27.0962 21.0545 26.1709 20.5953C25.2455 20.1142 24.5074 19.4691 23.9566 18.66C23.4058 17.8509 23.1084 16.9216 23.0643 15.8719V10.263C23.1084 9.2134 23.4058 8.28405 23.9566 7.47497C24.5294 6.64399 25.2676 5.98799 26.1709 5.50693C27.0962 5.02583 28.1317 4.78528 29.2775 4.78528C30.7536 4.78528 32.0756 5.1461 33.2433 5.86771C34.411 6.58933 35.3254 7.57335 35.9863 8.81977C36.6693 10.0662 37.0107 11.4767 37.0107 13.0511C37.0107 14.6037 36.6693 16.0032 35.9863 17.2496C35.3254 18.496 34.411 19.48 33.2433 20.2016C32.0756 20.9233 30.7536 21.2841 29.2775 21.2841ZM28.5173 17.3152C29.3105 17.3152 30.0155 17.1403 30.6324 16.7904C31.2493 16.4186 31.723 15.9157 32.0535 15.2815C32.406 14.6255 32.5823 13.8711 32.5823 13.0183C32.5823 12.1873 32.406 11.4548 32.0535 10.8207C31.723 10.1646 31.2493 9.66166 30.6324 9.31178C30.0155 8.94005 29.3105 8.7542 28.5173 8.7542C27.7462 8.7542 27.0522 8.94005 26.4353 9.31178C25.8184 9.66166 25.3336 10.1646 24.9811 10.8207C24.6506 11.4548 24.4854 12.1873 24.4854 13.0183C24.4854 13.8711 24.6506 14.6255 24.9811 15.2815C25.3336 15.9157 25.8073 16.4186 26.4022 16.7904C27.0191 17.1403 27.7241 17.3152 28.5173 17.3152ZM20.4204 27.5818V5.1133H24.7498V9.27901L24.0227 13.1167L24.7167 16.9544V27.5818H20.4204Z" fill="#01FF82"/>
<defs>
<linearGradient id="paint0_linear_2_17" x1="62.7574" y1="24.3637" x2="40.7655" y2="1.96943" gradientUnits="userSpaceOnUse">
<stop stop-color="#82958C"/>
<stop offset="0.359375" stop-color="#82958C"/>
<stop offset="0.510417" stop-color="#6B7B73"/>
<stop offset="0.666667" stop-color="#82958C"/>
<stop offset="1" stop-color="#82958C"/>
</linearGradient>
<linearGradient id="paint1_linear_2_17" x1="40.4973" y1="24.0952" x2="62.7575" y2="1.70096" gradientUnits="userSpaceOnUse">
<stop stop-color="#01FF82"/>
<stop offset="0.244792" stop-color="#0FFF89"/>
<stop offset="0.484375" stop-color="#24FF93"/>
<stop offset="0.75" stop-color="#12FF8A"/>
<stop offset="1" stop-color="#01FF82"/>
</linearGradient>
</defs>
</svg>
